<svg width="1440" height="800" viewBox="0 0 1440 800" fill="none" xmlns="http://www.w3.org/2000/svg">
<g clip-path="url(#clip0_2096_413)">
<path d="M522.968 83.1367L464.033 36.9917C460.25 34.0299 454.783 34.6954 451.821 38.4782L354.014 163.396C351.052 167.178 351.717 172.646 355.5 175.608L414.436 221.753C418.218 224.715 423.686 224.049 426.648 220.266L524.455 95.3488C527.417 91.566 526.751 86.0985 522.968 83.1367Z" fill="#F5F5F5"/>
<path d="M416.445 205.008C416.345 205.108 406.778 197.778 395.074 188.612C383.369 179.445 373.952 171.915 374.036 171.798C374.119 171.681 383.686 179.028 395.408 188.194C407.129 197.361 416.529 204.891 416.445 205.008Z" fill="#E0E0E0"/>
<path d="M505.086 86.8987C504.986 87.0156 495.419 79.669 483.714 70.5025C472.01 61.336 462.576 53.8058 462.677 53.6889C462.777 53.572 472.327 60.9186 484.048 70.0851C495.77 79.2516 505.17 86.7818 505.086 86.8987Z" fill="#E0E0E0"/>
<path d="M394.04 187.116C393.923 187.016 414.176 160.969 439.254 128.944C464.333 96.9199 484.77 71.0066 484.887 71.09C485.003 71.1735 464.767 97.2205 439.672 129.262C414.577 161.303 394.156 187.199 394.04 187.116Z" fill="#E0E0E0"/>
<path d="M449.992 79.0681L455.318 71.9219L461.997 76.9309C462.466 77.2799 462.862 77.7181 463.161 78.2204C463.46 78.7226 463.657 79.279 463.741 79.8576C463.825 80.4362 463.794 81.0257 463.649 81.5922C463.505 82.1587 463.25 82.6911 462.899 83.1588C462.194 84.105 461.142 84.7329 459.975 84.9051C458.807 85.0772 457.619 84.7795 456.671 84.0771L449.992 79.0681Z" fill="#EBEBEB"/>
<path d="M456.523 72.8203L451.196 79.9498L444.518 74.9407C443.557 74.2451 442.912 73.1966 442.724 72.0258C442.537 70.8549 442.821 69.6573 443.516 68.6962C443.865 68.2271 444.303 67.8316 444.805 67.5323C445.307 67.233 445.864 67.0358 446.442 66.9521C447.021 66.8683 447.611 66.8996 448.177 67.0442C448.744 67.1887 449.276 67.4437 449.744 67.7945L456.523 72.8203Z" fill="#E0E0E0"/>
<path d="M484.488 105.412L489.815 98.2656L496.493 103.275C497.441 103.983 498.069 105.037 498.241 106.207C498.413 107.378 498.115 108.568 497.412 109.519C496.701 110.464 495.645 111.089 494.475 111.258C493.305 111.427 492.116 111.126 491.167 110.421L484.488 105.412Z" fill="#EBEBEB"/>
<path d="M491.018 99.1501L485.691 106.296L479.013 101.287C478.544 100.938 478.148 100.5 477.849 99.9979C477.549 99.4956 477.352 98.9392 477.268 98.3606C477.185 97.782 477.216 97.1925 477.361 96.626C477.505 96.0595 477.76 95.5272 478.111 95.0594C478.46 94.5904 478.898 94.1949 479.4 93.8956C479.903 93.5963 480.459 93.3991 481.038 93.3154C481.616 93.2316 482.206 93.2629 482.772 93.4075C483.339 93.552 483.871 93.807 484.339 94.1578L491.018 99.1501Z" fill="#E0E0E0"/>
<path d="M435.051 98.7673L440.377 91.6211L447.056 96.6301C448.003 97.3383 448.631 98.3928 448.803 99.5629C448.976 100.733 448.677 101.924 447.974 102.875C447.263 103.819 446.208 104.444 445.038 104.613C443.868 104.782 442.678 104.481 441.729 103.776L435.051 98.7673Z" fill="#EBEBEB"/>
<path d="M441.563 92.5056L436.254 99.6518L429.575 94.6428C429.106 94.2938 428.711 93.8556 428.411 93.3533C428.112 92.8511 427.915 92.2947 427.831 91.7161C427.747 91.1375 427.779 90.548 427.923 89.9815C428.068 89.415 428.323 88.8826 428.673 88.4149C429.022 87.9459 429.461 87.5504 429.963 87.2511C430.465 86.9518 431.022 86.7546 431.6 86.6708C432.179 86.5871 432.768 86.6184 433.335 86.7629C433.901 86.9075 434.434 87.1625 434.901 87.5133L441.563 92.5056Z" fill="#E0E0E0"/>
<path d="M470.328 125.684L475.654 118.555L482.333 123.564C483.279 124.269 483.907 125.32 484.079 126.488C484.252 127.655 483.954 128.843 483.251 129.792C482.902 130.262 482.463 130.66 481.96 130.961C481.457 131.262 480.9 131.461 480.32 131.546C479.74 131.631 479.148 131.601 478.58 131.458C478.011 131.315 477.477 131.06 477.007 130.71L470.328 125.684Z" fill="#EBEBEB"/>
<path d="M476.907 119.439L471.598 126.586L464.919 121.577C464.45 121.228 464.054 120.789 463.755 120.287C463.456 119.785 463.258 119.228 463.175 118.65C463.091 118.071 463.122 117.482 463.267 116.915C463.411 116.349 463.666 115.816 464.017 115.349C464.722 114.403 465.774 113.775 466.941 113.602C468.109 113.43 469.297 113.728 470.245 114.43L476.907 119.439Z" fill="#E0E0E0"/>
<path d="M420.141 118.455L425.467 111.309L432.146 116.318C432.615 116.667 433.01 117.105 433.309 117.607C433.609 118.109 433.806 118.666 433.89 119.244C433.973 119.823 433.942 120.412 433.798 120.979C433.653 121.545 433.398 122.078 433.047 122.545C432.342 123.492 431.29 124.12 430.123 124.292C428.956 124.464 427.768 124.166 426.819 123.464L420.141 118.455Z" fill="#EBEBEB"/>
<path d="M426.614 112.24L421.288 119.386L414.609 114.377C414.139 114.029 413.742 113.592 413.441 113.09C413.14 112.589 412.941 112.033 412.856 111.454C412.771 110.875 412.801 110.285 412.944 109.718C413.087 109.151 413.341 108.618 413.691 108.149C414.395 107.217 415.437 106.599 416.592 106.427C417.747 106.256 418.924 106.544 419.869 107.231L426.614 112.24Z" fill="#E0E0E0"/>
<path d="M456.168 145.974L461.478 138.828L468.156 143.837C468.625 144.186 469.021 144.624 469.32 145.127C469.619 145.629 469.817 146.185 469.9 146.764C469.984 147.342 469.953 147.932 469.808 148.498C469.664 149.065 469.409 149.597 469.058 150.065C468.353 151.011 467.301 151.639 466.134 151.811C464.966 151.983 463.778 151.686 462.83 150.983L456.168 145.974Z" fill="#EBEBEB"/>
<path d="M462.683 139.727L457.357 146.873L450.678 141.864C450.203 141.519 449.802 141.083 449.496 140.581C449.19 140.08 448.986 139.523 448.896 138.943C448.806 138.363 448.832 137.771 448.972 137.2C449.111 136.63 449.362 136.093 449.71 135.62C450.418 134.672 451.472 134.044 452.643 133.872C453.813 133.7 455.003 133.998 455.954 134.701L462.683 139.727Z" fill="#E0E0E0"/>
<path d="M403.137 138.689L408.446 131.543L415.125 136.552C415.594 136.901 415.99 137.339 416.289 137.841C416.588 138.344 416.785 138.9 416.869 139.479C416.953 140.057 416.922 140.647 416.777 141.213C416.632 141.78 416.377 142.312 416.027 142.78C415.678 143.249 415.239 143.644 414.737 143.944C414.235 144.243 413.679 144.44 413.1 144.524C412.521 144.608 411.932 144.576 411.365 144.432C410.799 144.287 410.266 144.032 409.799 143.682L403.137 138.689Z" fill="#EBEBEB"/>
<path d="M409.65 132.431L404.324 139.577L397.645 134.568C396.703 133.855 396.081 132.798 395.915 131.628C395.75 130.458 396.053 129.27 396.76 128.324C397.471 127.379 398.526 126.754 399.696 126.585C400.866 126.416 402.056 126.717 403.005 127.422L409.65 132.431Z" fill="#E0E0E0"/>
<path d="M439.504 165.787L444.83 158.641L451.509 163.65C451.979 163.997 452.376 164.435 452.677 164.936C452.978 165.438 453.177 165.994 453.262 166.573C453.347 167.151 453.318 167.741 453.174 168.308C453.031 168.876 452.777 169.409 452.427 169.878C452.078 170.347 451.64 170.742 451.138 171.041C450.635 171.341 450.079 171.538 449.5 171.622C448.922 171.705 448.332 171.674 447.766 171.53C447.199 171.385 446.667 171.13 446.199 170.779L439.504 165.787Z" fill="#EBEBEB"/>
<path d="M446.036 159.547L440.709 166.676L434.031 161.667C433.086 160.957 432.461 159.901 432.292 158.731C432.123 157.561 432.424 156.372 433.129 155.423C433.478 154.954 433.916 154.558 434.419 154.259C434.921 153.96 435.477 153.762 436.056 153.679C436.634 153.595 437.224 153.626 437.79 153.771C438.357 153.915 438.889 154.17 439.357 154.521L446.036 159.547Z" fill="#E0E0E0"/>
<path d="M388.148 161.482L393.425 154.336L400.103 159.345C401.048 160.056 401.673 161.111 401.842 162.281C402.011 163.451 401.71 164.641 401.005 165.59C400.656 166.059 400.218 166.454 399.715 166.753C399.213 167.053 398.657 167.25 398.078 167.334C397.5 167.417 396.91 167.386 396.344 167.242C395.777 167.097 395.245 166.842 394.777 166.491L388.148 161.482Z" fill="#EBEBEB"/>
<path d="M394.673 155.218L389.347 162.33L382.668 157.321C381.724 156.619 381.096 155.572 380.921 154.408C380.746 153.245 381.038 152.059 381.733 151.11C382.082 150.641 382.52 150.246 383.022 149.946C383.525 149.647 384.081 149.45 384.66 149.366C385.238 149.282 385.828 149.314 386.394 149.458C386.961 149.603 387.493 149.858 387.961 150.209L394.673 155.218Z" fill="#E0E0E0"/>
<path d="M422.754 187.259L428.08 180.113L434.759 185.122C435.229 185.47 435.626 185.907 435.927 186.409C436.228 186.911 436.427 187.467 436.512 188.045C436.597 188.624 436.568 189.214 436.424 189.781C436.281 190.348 436.027 190.881 435.677 191.35C435.328 191.819 434.89 192.215 434.388 192.514C433.885 192.813 433.329 193.011 432.75 193.094C432.172 193.178 431.582 193.147 431.016 193.002C430.449 192.858 429.917 192.603 429.449 192.252L422.754 187.259Z" fill="#EBEBEB"/>
<path d="M429.286 181.003L423.959 188.149L417.281 183.14C416.336 182.429 415.711 181.374 415.542 180.204C415.373 179.034 415.674 177.844 416.379 176.895C416.728 176.426 417.166 176.031 417.669 175.732C418.171 175.432 418.727 175.235 419.306 175.151C419.884 175.068 420.474 175.099 421.04 175.243C421.607 175.388 422.139 175.643 422.607 175.994L429.286 181.003Z" fill="#E0E0E0"/>
<path d="M1087.1 502.049L979.843 538.599C978.761 538.966 977.617 539.117 976.477 539.042C975.337 538.968 974.222 538.669 973.197 538.164C972.172 537.658 971.257 536.956 970.504 536.096C969.75 535.237 969.174 534.238 968.807 533.155L893.989 313.526C893.618 312.444 893.465 311.3 893.537 310.159C893.609 309.017 893.906 307.901 894.41 306.874C894.914 305.848 895.615 304.931 896.474 304.175C897.333 303.42 898.332 302.842 899.415 302.473L1006.68 265.941C1008.86 265.197 1011.25 265.352 1013.32 266.369C1015.39 267.387 1016.97 269.184 1017.71 271.367L1092.53 491.013C1092.9 492.094 1093.05 493.237 1092.98 494.377C1092.91 495.517 1092.61 496.632 1092.11 497.657C1091.6 498.683 1090.9 499.599 1090.04 500.352C1089.18 501.106 1088.19 501.683 1087.1 502.049Z" fill="#EBEBEB"/>
<path d="M948.452 332.878C949.064 334.669 949.132 336.601 948.646 338.431C948.159 340.26 947.142 341.904 945.721 343.154C944.301 344.405 942.541 345.206 940.665 345.457C938.789 345.707 936.881 345.395 935.182 344.561C933.483 343.727 932.07 342.408 931.121 340.77C930.172 339.132 929.731 337.25 929.852 335.361C929.973 333.473 930.651 331.662 931.802 330.159C932.952 328.656 934.522 327.528 936.313 326.918C938.714 326.1 941.34 326.268 943.616 327.386C945.892 328.503 947.632 330.479 948.452 332.878Z" fill="#FAFAFA"/>
<path d="M1001.05 314.96C1001.66 316.748 1001.73 318.676 1001.24 320.501C1000.75 322.326 999.735 323.966 998.316 325.213C996.898 326.459 995.141 327.258 993.269 327.506C991.396 327.755 989.492 327.443 987.797 326.609C986.102 325.776 984.692 324.458 983.746 322.824C982.8 321.189 982.359 319.31 982.481 317.426C982.602 315.541 983.279 313.734 984.427 312.234C985.575 310.734 987.142 309.608 988.93 308.999C990.118 308.594 991.373 308.427 992.625 308.508C993.877 308.589 995.1 308.915 996.226 309.468C997.352 310.022 998.357 310.792 999.185 311.734C1000.01 312.676 1000.65 313.772 1001.05 314.96Z" fill="#FAFAFA"/>
<path d="M965.103 381.777C965.712 383.565 965.777 385.493 965.29 387.318C964.803 389.143 963.786 390.783 962.367 392.03C960.948 393.276 959.192 394.075 957.319 394.323C955.447 394.572 953.543 394.26 951.848 393.426C950.153 392.593 948.743 391.275 947.797 389.641C946.85 388.006 946.41 386.128 946.531 384.243C946.653 382.358 947.33 380.551 948.478 379.051C949.626 377.551 951.193 376.425 952.981 375.816C954.168 375.409 955.424 375.24 956.677 375.32C957.929 375.399 959.153 375.725 960.28 376.279C961.406 376.833 962.412 377.604 963.239 378.547C964.067 379.49 964.7 380.588 965.103 381.777Z" fill="#FAFAFA"/>
<path d="M1017.72 363.862C1018.33 365.65 1018.39 367.578 1017.9 369.403C1017.42 371.228 1016.4 372.868 1014.98 374.115C1013.56 375.362 1011.81 376.16 1009.93 376.409C1008.06 376.657 1006.16 376.345 1004.46 375.512C1002.77 374.678 1001.36 373.361 1000.41 371.726C999.464 370.091 999.023 368.213 999.145 366.328C999.266 364.443 999.943 362.636 1001.09 361.136C1002.24 359.637 1003.81 358.511 1005.59 357.901C1006.78 357.497 1008.04 357.33 1009.29 357.41C1010.54 357.491 1011.76 357.817 1012.89 358.371C1014.02 358.924 1015.02 359.694 1015.85 360.636C1016.68 361.579 1017.31 362.675 1017.72 363.862Z" fill="#FAFAFA"/>
<path d="M981.767 430.702C982.376 432.49 982.441 434.418 981.954 436.243C981.467 438.068 980.45 439.708 979.031 440.955C977.612 442.202 975.856 443 973.983 443.248C972.111 443.497 970.207 443.185 968.512 442.351C966.817 441.518 965.407 440.201 964.461 438.566C963.515 436.931 963.074 435.053 963.195 433.168C963.317 431.283 963.994 429.476 965.142 427.976C966.29 426.476 967.857 425.351 969.645 424.741C970.832 424.336 972.088 424.17 973.34 424.25C974.591 424.331 975.815 424.657 976.941 425.211C978.066 425.764 979.072 426.534 979.9 427.476C980.728 428.418 981.362 429.515 981.767 430.702Z" fill="#FAFAFA"/>
<path d="M1034.37 412.784C1034.98 414.572 1035.05 416.5 1034.56 418.325C1034.07 420.15 1033.06 421.79 1031.64 423.037C1030.22 424.284 1028.46 425.082 1026.59 425.33C1024.72 425.579 1022.81 425.267 1021.12 424.433C1019.42 423.6 1018.01 422.283 1017.07 420.648C1016.12 419.013 1015.68 417.135 1015.8 415.25C1015.92 413.365 1016.6 411.558 1017.75 410.058C1018.9 408.558 1020.46 407.433 1022.25 406.823C1023.44 406.418 1024.69 406.252 1025.95 406.332C1027.2 406.413 1028.42 406.739 1029.55 407.293C1030.67 407.846 1031.68 408.616 1032.51 409.558C1033.33 410.5 1033.97 411.597 1034.37 412.784Z" fill="#FAFAFA"/>
<path d="M998.431 479.573C999.04 481.361 999.105 483.289 998.618 485.114C998.131 486.939 997.114 488.579 995.695 489.826C994.276 491.073 992.52 491.871 990.647 492.12C988.775 492.368 986.871 492.056 985.176 491.223C983.481 490.389 982.071 489.072 981.125 487.437C980.179 485.802 979.738 483.924 979.86 482.039C979.981 480.154 980.658 478.347 981.806 476.847C982.954 475.348 984.521 474.222 986.309 473.612C987.496 473.208 988.752 473.041 990.004 473.121C991.255 473.202 992.479 473.528 993.605 474.082C994.73 474.635 995.736 475.405 996.564 476.347C997.392 477.29 998.027 478.386 998.431 479.573Z" fill="#FAFAFA"/>
<path d="M1051.04 461.69C1051.65 463.478 1051.71 465.407 1051.22 467.232C1050.74 469.056 1049.72 470.696 1048.3 471.943C1046.88 473.19 1045.13 473.988 1043.25 474.237C1041.38 474.485 1039.48 474.173 1037.78 473.34C1036.09 472.506 1034.68 471.189 1033.73 469.554C1032.78 467.92 1032.34 466.041 1032.47 464.156C1032.59 462.271 1033.26 460.464 1034.41 458.965C1035.56 457.465 1037.13 456.339 1038.91 455.729C1040.1 455.325 1041.36 455.158 1042.61 455.238C1043.86 455.319 1045.08 455.645 1046.21 456.199C1047.34 456.752 1048.34 457.522 1049.17 458.464C1050 459.407 1050.63 460.503 1051.04 461.69Z" fill="#FAFAFA"/>
<path d="M943.332 327.75C942.313 330.576 941.062 333.312 939.592 335.931C938.353 338.67 936.878 341.296 935.184 343.779C936.202 340.953 937.453 338.217 938.924 335.597C940.159 332.857 941.634 330.231 943.332 327.75Z" fill="#E0E0E0"/>
<path d="M994.838 309.766C993.827 312.597 992.582 315.339 991.115 317.964C989.864 320.696 988.39 323.321 986.707 325.811C987.722 322.981 988.967 320.239 990.43 317.613C991.686 314.883 993.16 312.258 994.838 309.766Z" fill="#E0E0E0"/>
<path d="M960.479 376.652C959.602 379.605 958.485 382.48 957.14 385.251C956.043 388.142 954.702 390.935 953.133 393.6C954.017 390.649 955.133 387.774 956.472 385.001C957.574 382.111 958.914 379.319 960.479 376.652Z" fill="#E0E0E0"/>
<path d="M1012.44 358.617C1011.74 361.478 1010.79 364.271 1009.6 366.966C1008.65 369.761 1007.46 372.47 1006.05 375.063C1006.75 372.204 1007.7 369.411 1008.89 366.715C1009.85 363.923 1011.04 361.215 1012.44 358.617Z" fill="#E0E0E0"/>
<path d="M975.573 425.359C973.817 430.704 971.581 435.878 968.895 440.821C970.651 435.476 972.886 430.302 975.573 425.359Z" fill="#E0E0E0"/>
<path d="M1029.45 408.258C1027.24 413.527 1024.57 418.59 1021.47 423.385C1022.45 420.702 1023.67 418.115 1025.13 415.654C1026.35 413.071 1027.8 410.596 1029.45 408.258Z" fill="#E0E0E0"/>
<path d="M993.652 474.961C992.561 477.744 991.238 480.431 989.695 482.992C988.374 485.673 986.827 488.237 985.07 490.656C987.48 485.19 990.351 479.939 993.652 474.961Z" fill="#E0E0E0"/>
<path d="M1046.15 455.457C1045.27 458.595 1044.16 461.659 1042.81 464.624C1041.7 467.681 1040.34 470.645 1038.77 473.489C1039.64 470.352 1040.75 467.287 1042.1 464.323C1043.21 461.264 1044.56 458.299 1046.15 455.457Z" fill="#E0E0E0"/>
<path d="M1065.33 487.921C1065.33 488.122 1049.28 493.782 1029.35 500.578C1009.41 507.373 993.165 512.716 993.098 512.516C993.031 512.315 1009.14 506.655 1029.1 499.86C1049.05 493.064 1065.26 487.688 1065.33 487.921Z" fill="#E0E0E0"/>
<path d="M993.84 291.248C993.84 291.431 977.794 297.108 957.842 303.904C937.889 310.699 921.676 316.042 921.61 315.842C921.543 315.642 937.655 309.981 957.608 303.186C977.56 296.39 993.773 291.047 993.84 291.248Z" fill="#E0E0E0"/>
<path d="M958.759 313.351C958.666 313.376 958.568 313.376 958.475 313.351H958.375L959.11 313.117C959.11 313.234 959.11 313.401 958.843 313.468C958.575 313.535 958.442 313.468 958.392 313.351L959.126 313.117C959.126 313.117 959.126 313.201 959.126 313.217C959.079 313.266 959.022 313.303 958.958 313.326C958.894 313.349 958.826 313.358 958.759 313.351Z" fill="#E0E0E0"/>
<path d="M1026.76 500.592C1026.56 500.592 1011.33 456.479 992.733 401.914C974.133 347.349 959.239 303.036 959.439 302.969C959.64 302.902 974.867 347.082 993.451 401.663C1012.03 456.245 1026.96 500.525 1026.76 500.592Z" fill="#E0E0E0"/>
<path d="M629.301 788.59L635.028 702.592L803.109 713.785C805.884 713.97 808.472 715.249 810.303 717.342C812.134 719.435 813.059 722.169 812.875 724.944L808.541 790.018C808.356 792.792 807.077 795.38 804.984 797.212C802.891 799.043 800.157 799.968 797.382 799.783L629.301 788.59Z" fill="#F5F5F5"/>
<path d="M681.884 737.803L678.285 791.848L755.554 796.993L759.153 742.949L681.884 737.803Z" fill="#E0E0E0"/>
<path d="M619.377 697.602L612.96 793.962C612.831 795.895 614.293 797.565 616.225 797.694L639.082 799.216C641.015 799.345 642.685 797.883 642.814 795.951L649.231 699.59C649.36 697.658 647.898 695.987 645.966 695.858L623.108 694.336C621.176 694.208 619.505 695.67 619.377 697.602Z" fill="#EBEBEB"/>
<path d="M643.135 791.231C638.12 791.362 633.102 791.183 628.108 790.697C623.119 790.514 618.145 790.029 613.215 789.244C618.23 789.114 623.249 789.292 628.242 789.779C633.231 789.96 638.205 790.446 643.135 791.231Z" fill="#E0E0E0"/>
<path d="M643.693 782.885C638.705 783.023 633.714 782.845 628.749 782.351C623.76 782.169 618.786 781.684 613.855 780.898C618.843 780.781 623.833 780.959 628.799 781.433C633.788 781.614 638.762 782.099 643.693 782.885Z" fill="#E0E0E0"/>
<path d="M644.257 774.556C639.241 774.686 634.223 774.508 629.229 774.021C624.24 773.84 619.266 773.354 614.336 772.569C619.351 772.438 624.37 772.617 629.363 773.103C634.352 773.286 639.326 773.771 644.257 774.556Z" fill="#E0E0E0"/>
<path d="M644.807 766.203C639.792 766.333 634.774 766.155 629.78 765.669C624.791 765.487 619.817 765.002 614.887 764.216C619.902 764.096 624.92 764.274 629.914 764.75C634.903 764.932 639.877 765.417 644.807 766.203Z" fill="#E0E0E0"/>
<path d="M645.358 757.872C640.37 758 635.38 757.821 630.414 757.338C625.419 757.156 620.44 756.67 615.504 755.885C620.519 755.755 625.538 755.933 630.531 756.419C635.498 756.604 640.449 757.089 645.358 757.872Z" fill="#E0E0E0"/>
<path d="M645.928 749.524C640.913 749.654 635.895 749.476 630.901 748.989C625.912 748.808 620.938 748.323 616.008 747.537C621.023 747.416 626.041 747.594 631.035 748.071C636.024 748.254 640.998 748.739 645.928 749.524Z" fill="#E0E0E0"/>
<path d="M646.475 741.196C641.46 741.327 636.441 741.148 631.448 740.662C626.459 740.48 621.485 739.995 616.555 739.209C621.57 739.079 626.588 739.257 631.582 739.744C636.571 739.926 641.545 740.412 646.475 741.196Z" fill="#E0E0E0"/>
<path d="M647.03 732.84C642.015 732.97 636.996 732.792 632.003 732.305C627.014 732.122 622.04 731.637 617.109 730.853C622.125 730.732 627.142 730.911 632.136 731.387C637.126 731.569 642.099 732.054 647.03 732.84Z" fill="#E0E0E0"/>
<path d="M647.579 724.513C642.592 724.641 637.601 724.463 632.636 723.979C627.646 723.797 622.673 723.312 617.742 722.526C622.757 722.395 627.776 722.573 632.769 723.06C637.731 723.245 642.676 723.731 647.579 724.513Z" fill="#E0E0E0"/>
<path d="M648.143 716.164C643.128 716.294 638.109 716.116 633.116 715.63C628.127 715.448 623.153 714.963 618.223 714.177C623.238 714.057 628.256 714.235 633.25 714.711C638.239 714.894 643.213 715.379 648.143 716.164Z" fill="#E0E0E0"/>
<path d="M648.698 707.833C643.683 707.963 638.664 707.785 633.671 707.299C628.681 707.117 623.708 706.632 618.777 705.846C623.793 705.716 628.811 705.894 633.804 706.38C638.794 706.562 643.767 707.047 648.698 707.833Z" fill="#E0E0E0"/>
<path d="M649.252 699.485C644.265 699.613 639.274 699.435 634.309 698.951C629.314 698.769 624.335 698.284 619.398 697.498C624.414 697.368 629.432 697.546 634.426 698.033C639.393 698.217 644.344 698.702 649.252 699.485Z" fill="#E0E0E0"/>
<path d="M792.051 782.917L787.203 782.594C785.878 782.506 784.642 781.894 783.767 780.895C782.892 779.895 782.45 778.589 782.538 777.263L783.637 760.77L798.631 761.768L797.532 778.262C797.488 778.931 797.31 779.584 797.008 780.183C796.707 780.782 796.288 781.315 795.777 781.749C795.266 782.183 794.673 782.51 794.033 782.711C793.393 782.911 792.719 782.981 792.051 782.917Z" fill="#EBEBEB"/>
<path d="M788.322 745.347L793.331 745.697C794.659 745.79 795.896 746.407 796.77 747.412C797.643 748.417 798.082 749.729 797.989 751.057L796.832 767.587L781.805 766.535L782.962 750.005C783.055 748.677 783.672 747.439 784.677 746.566C785.682 745.692 786.993 745.254 788.322 745.347Z" fill="#E0E0E0"/>
<path d="M756.891 730.031L755.627 734.744C755.282 736.033 754.439 737.132 753.284 737.798C752.128 738.465 750.755 738.646 749.466 738.301L733.433 734.003L737.34 719.427L753.373 723.724C754.024 723.898 754.633 724.201 755.164 724.615C755.696 725.029 756.138 725.545 756.467 726.134C756.795 726.722 757.001 727.37 757.074 728.039C757.147 728.709 757.085 729.386 756.891 730.031Z" fill="#EBEBEB"/>
<path d="M719.899 723.521L721.156 718.827C721.499 717.544 722.339 716.45 723.489 715.785C724.64 715.121 726.007 714.941 727.29 715.284L743.257 719.56L739.371 734.076L723.403 729.8C722.755 729.627 722.149 729.325 721.62 728.913C721.09 728.501 720.649 727.987 720.323 727.402C719.996 726.816 719.79 726.171 719.717 725.504C719.644 724.838 719.706 724.163 719.899 723.521Z" fill="#E0E0E0"/>
<path d="M803.809 722.344L805.121 727.009C805.479 728.284 805.317 729.65 804.669 730.805C804.02 731.96 802.94 732.811 801.664 733.17L785.796 737.633L781.739 723.207L797.607 718.744C798.251 718.562 798.924 718.512 799.588 718.596C800.251 718.68 800.891 718.896 801.47 719.232C802.048 719.568 802.553 720.016 802.955 720.551C803.357 721.085 803.647 721.695 803.809 722.344Z" fill="#EBEBEB"/>
<path d="M758.339 737.624L757.028 732.96C756.669 731.684 756.832 730.319 757.48 729.163C758.128 728.008 759.209 727.157 760.484 726.799L776.417 722.318L780.474 736.744L764.605 741.207C763.959 741.398 763.28 741.457 762.61 741.379C761.94 741.301 761.293 741.088 760.707 740.753C760.122 740.419 759.61 739.969 759.203 739.431C758.796 738.893 758.502 738.279 758.339 737.624Z" fill="#E0E0E0"/>
<path d="M765.278 782.083L760.779 780.248C759.549 779.746 758.568 778.776 758.053 777.552C757.538 776.327 757.531 774.948 758.032 773.718L764.275 758.412L778.189 764.088L771.946 779.393C771.445 780.623 770.475 781.604 769.25 782.119C768.026 782.634 766.647 782.641 765.417 782.139L765.278 782.083Z" fill="#EBEBEB"/>
<path d="M776.12 742.603L780.619 744.438C781.849 744.94 782.829 745.91 783.344 747.134C783.859 748.359 783.867 749.738 783.365 750.968L777.122 766.273L763.208 760.598L769.451 745.292C769.704 744.671 770.079 744.107 770.554 743.634C771.029 743.161 771.595 742.788 772.217 742.537C772.838 742.286 773.504 742.163 774.175 742.174C774.846 742.185 775.507 742.331 776.12 742.603Z" fill="#E0E0E0"/>
<path d="M998.242 125.599L1009.53 139.958C1009.73 140.228 1009.83 140.567 1009.79 140.904C1009.75 141.24 1009.58 141.548 1009.31 141.761L994.802 153.032C993.724 153.872 992.49 154.492 991.172 154.856C989.854 155.22 988.477 155.32 987.12 155.151C985.763 154.982 984.453 154.547 983.264 153.871C982.075 153.195 981.032 152.291 980.193 151.212C979.351 150.132 978.731 148.897 978.367 147.577C978.003 146.258 977.903 144.88 978.072 143.521C978.241 142.163 978.676 140.851 979.352 139.661C980.028 138.471 980.932 137.426 982.012 136.585L996.522 125.315C996.793 125.141 997.119 125.074 997.436 125.127C997.754 125.179 998.041 125.347 998.242 125.599Z" fill="#EBEBEB"/>
<path d="M1006.69 142.096L995.474 127.687C995.371 127.553 995.296 127.4 995.252 127.237C995.207 127.074 995.196 126.904 995.218 126.737C995.239 126.569 995.294 126.408 995.378 126.261C995.462 126.115 995.574 125.986 995.708 125.883L1010.2 114.613C1011.28 113.772 1012.51 113.152 1013.83 112.789C1015.15 112.425 1016.53 112.325 1017.88 112.494C1019.24 112.663 1020.55 113.098 1021.74 113.774C1022.93 114.45 1023.97 115.353 1024.81 116.433C1025.65 117.513 1026.27 118.748 1026.64 120.067C1027 121.387 1027.1 122.765 1026.93 124.123C1026.76 125.482 1026.33 126.793 1025.65 127.983C1024.97 129.174 1024.07 130.219 1022.99 131.059L1008.5 142.296C1008.23 142.508 1007.89 142.606 1007.55 142.568C1007.22 142.531 1006.91 142.361 1006.69 142.096Z" fill="#E0E0E0"/>
<path d="M355.554 467.482L372.735 473.726C373.057 473.846 373.319 474.09 373.463 474.403C373.607 474.715 373.621 475.073 373.503 475.396L367.225 492.644C366.759 493.931 366.043 495.115 365.119 496.125C364.195 497.136 363.081 497.955 361.841 498.535C360.6 499.115 359.257 499.445 357.889 499.506C356.521 499.566 355.154 499.356 353.867 498.888C351.269 497.943 349.153 496.006 347.982 493.501C346.811 490.997 346.682 488.13 347.623 485.531L353.901 468.283C353.955 468.121 354.041 467.971 354.154 467.843C354.267 467.714 354.405 467.61 354.559 467.535C354.713 467.46 354.88 467.417 355.051 467.408C355.222 467.399 355.393 467.424 355.554 467.482Z" fill="#EBEBEB"/>
<path d="M371.53 477.017L354.366 470.773C354.203 470.717 354.054 470.629 353.926 470.514C353.799 470.398 353.696 470.259 353.624 470.102C353.552 469.946 353.513 469.777 353.508 469.605C353.504 469.434 353.534 469.263 353.598 469.103L359.876 451.839C360.342 450.551 361.057 449.368 361.981 448.358C362.906 447.348 364.02 446.53 365.261 445.951C366.502 445.372 367.845 445.044 369.213 444.986C370.581 444.928 371.947 445.14 373.233 445.611C374.521 446.077 375.703 446.792 376.714 447.716C377.724 448.641 378.542 449.755 379.121 450.996C379.699 452.237 380.027 453.58 380.086 454.948C380.144 456.316 379.932 457.682 379.461 458.968L373.183 476.233C373.066 476.554 372.827 476.817 372.518 476.964C372.208 477.111 371.853 477.13 371.53 477.017Z" fill="#E0E0E0"/>
<path d="M1076.32 798.379C1076.32 798.63 916.302 798.814 719.014 798.814C521.725 798.814 361.703 798.63 361.703 798.379C361.703 798.129 521.691 797.945 719.097 797.945C916.503 797.945 1076.32 798.146 1076.32 798.379Z" fill="#263238"/>
<path d="M939.893 60.7695H537.551C528.238 60.7695 520.688 68.3197 520.688 77.6332V619.86C520.688 629.174 528.238 636.724 537.551 636.724H939.893C949.206 636.724 956.756 629.174 956.756 619.86V77.6332C956.756 68.3197 949.206 60.7695 939.893 60.7695Z" fill="#455A64"/>
<path d="M927.539 87.9883H549.875V597.156H927.539V87.9883Z" fill="white"/>
<path d="M927.552 597.157C927.552 593.684 927.385 389.466 927.152 87.9061L927.552 88.2901H549.922L550.356 87.856C550.356 277.748 550.356 453.698 550.356 597.107L549.989 596.739L927.669 597.107L549.989 597.457H549.638V597.107C549.638 453.782 549.638 277.832 549.555 87.856V87.4219H550.039H927.669H928.053V87.8226C927.719 389.416 927.552 593.684 927.552 597.157Z" fill="#263238"/>
<path d="M629.388 173.44L620.588 160.199H610.854V173.44H600.285V125.921H620.054C623.684 125.835 627.287 126.553 630.606 128.025C633.431 129.284 635.823 131.345 637.486 133.952C639.154 136.713 639.995 139.894 639.907 143.119C640.008 146.36 639.155 149.559 637.452 152.319C635.774 154.912 633.362 156.946 630.523 158.162L640.775 173.44H629.388ZM626.716 137.024C624.639 135.459 622.064 134.7 619.47 134.887H610.854V151.45H619.47C622.071 151.63 624.648 150.852 626.716 149.263C628.312 147.626 629.206 145.43 629.206 143.144C629.206 140.857 628.312 138.661 626.716 137.024Z" fill="url(#paint0_linear_2096_413)"/>
<path d="M652.506 206.284L642.054 190.723L631.785 206.351H620.281L636.31 183.46L621.083 161.336H632.47L642.488 175.929L652.222 161.27H663.042L648.015 182.975L664.16 206.251L652.506 206.284Z" fill="url(#paint1_linear_2096_413)"/>
<path d="M796.399 137.277H731.582V153.323H796.399V137.277Z" fill="#E0E0E0"/>
<path d="M891.454 147.407C891.454 147.657 873.722 147.841 851.85 147.841C829.977 147.841 812.262 147.657 812.262 147.407C812.262 147.156 829.977 146.973 851.85 146.973C873.722 146.973 891.454 147.173 891.454 147.407Z" fill="#263238"/>
<path d="M889.967 166.658C889.967 166.892 854.503 167.092 810.775 167.092C767.046 167.092 731.582 166.892 731.582 166.658C731.582 166.424 767.029 166.207 810.775 166.207C854.52 166.207 889.967 166.407 889.967 166.658Z" fill="#263238"/>
<path d="M889.967 185.512C889.967 185.746 854.503 185.946 810.775 185.946C767.046 185.946 731.582 185.746 731.582 185.512C731.582 185.278 767.029 185.078 810.775 185.078C854.52 185.078 889.967 185.262 889.967 185.512Z" fill="#263238"/>
<path d="M914.679 235.798C914.679 236.032 835.887 236.233 738.729 236.233C641.57 236.233 562.762 236.032 562.762 235.798C562.762 235.565 641.52 235.348 738.729 235.348C835.937 235.348 914.679 235.515 914.679 235.798Z" fill="#263238"/>
<path d="M914.679 520.418C914.679 520.652 835.887 520.853 738.729 520.853C641.57 520.853 562.762 520.652 562.762 520.418C562.762 520.185 641.52 519.984 738.729 519.984C835.937 519.984 914.679 520.168 914.679 520.418Z" fill="#263238"/>
<path d="M700.325 264.57H591.746V284.94H700.325V264.57Z" fill="#E0E0E0"/>
<path d="M638.747 549.469H591.746V569.839H638.747V549.469Z" fill="#E0E0E0"/>
<path d="M796.564 549.469H749.562V569.839H796.564V549.469Z" fill="#E0E0E0"/>
<path d="M717.529 563.575C717.529 563.825 702.853 564.009 684.753 564.009C666.654 564.009 651.961 563.825 651.961 563.575C651.961 563.324 666.637 563.141 684.753 563.141C702.869 563.141 717.529 563.341 717.529 563.575Z" fill="#263238"/>
<path d="M886.295 563.575C886.295 563.825 871.618 564.009 853.519 564.009C835.42 564.009 820.727 563.825 820.727 563.575C820.727 563.324 835.403 563.141 853.519 563.141C871.635 563.141 886.295 563.341 886.295 563.575Z" fill="#263238"/>
<path d="M882.407 315.614C882.407 315.848 818.074 316.048 738.815 316.048C659.555 316.048 595.223 315.848 595.223 315.614C595.223 315.38 659.522 315.18 738.815 315.18C818.108 315.18 882.407 315.363 882.407 315.614Z" fill="#263238"/>
<path d="M887.983 338.852C887.983 339.103 822.415 339.286 741.553 339.286C660.69 339.286 595.105 339.103 595.105 338.852C595.105 338.602 660.657 338.418 741.553 338.418C822.448 338.418 887.983 338.618 887.983 338.852Z" fill="#263238"/>
<path d="M737.075 362.11C737.075 362.344 704.533 362.544 664.41 362.544C624.288 362.544 591.746 362.344 591.746 362.11C591.746 361.876 624.271 361.676 664.41 361.676C704.549 361.676 737.075 361.859 737.075 362.11Z" fill="#263238"/>
<path d="M885.828 446.429C885.828 446.429 885.51 446.563 884.859 446.763L882.021 447.631C878.353 448.722 874.623 449.592 870.851 450.236C868.126 450.715 865.368 450.978 862.602 451.021C859.294 451.086 855.993 450.675 852.801 449.802C849.125 448.751 845.738 446.871 842.9 444.309C839.7 441.386 837.597 437.456 836.94 433.172C836.596 430.858 836.879 428.494 837.758 426.326C838.742 424.072 840.353 422.148 842.399 420.783C843.457 420.05 844.65 419.535 845.908 419.269C847.167 419.002 848.466 418.989 849.729 419.23C851.009 419.545 852.212 420.112 853.269 420.9C854.3 421.762 855.161 422.81 855.807 423.989C857.035 426.431 857.648 429.136 857.593 431.869C857.605 434.666 857.096 437.441 856.091 440.051C853.911 445.454 850.318 450.172 845.689 453.709C840.839 457.478 835.079 459.898 828.992 460.721C825.871 461.167 822.7 461.127 819.592 460.605C818.013 460.35 816.455 459.976 814.933 459.486C813.412 458.926 811.928 458.268 810.492 457.516C807.627 455.918 805.076 453.813 802.962 451.305C800.776 448.743 799.246 445.689 798.504 442.405C797.688 439.031 798.108 435.477 799.689 432.387C801.258 429.26 803.859 426.771 807.052 425.341C808.668 424.61 810.443 424.299 812.212 424.439C813.965 424.614 815.641 425.247 817.07 426.276C819.785 428.429 821.658 431.466 822.363 434.858C823.131 438.106 823.312 441.465 822.898 444.776C822.571 448.019 821.848 451.21 820.744 454.277C818.695 460.328 815.077 465.727 810.258 469.921C805.575 473.939 799.718 476.335 793.561 476.75C787.874 477.33 782.167 475.865 777.461 472.619C772.756 469.373 769.36 464.557 767.882 459.035C766.371 454.105 766.571 448.81 768.449 444.008C769.333 441.717 770.85 439.725 772.824 438.264C773.811 437.543 774.956 437.068 776.163 436.878C777.351 436.703 778.562 436.933 779.603 437.53C780.556 438.15 781.353 438.982 781.932 439.961C782.511 440.94 782.857 442.039 782.942 443.173C783.221 445.248 783.137 447.355 782.692 449.401C782.032 453.132 780.91 456.767 779.352 460.221C778.003 463.22 776.323 466.059 774.343 468.686C772.69 470.911 770.822 472.969 768.767 474.83C765.964 477.445 762.805 479.649 759.383 481.375C758.506 481.843 757.603 482.261 756.678 482.628L755.727 482.995L756.645 482.544C757.246 482.244 758.181 481.876 759.316 481.225C762.68 479.423 765.786 477.177 768.55 474.546C772.934 470.415 776.473 465.47 778.968 459.987C780.527 456.574 781.649 452.978 782.308 449.284C782.716 447.29 782.789 445.242 782.525 443.223C782.444 442.184 782.128 441.177 781.602 440.278C781.075 439.379 780.352 438.61 779.486 438.031C778.561 437.502 777.484 437.302 776.431 437.463C775.346 437.657 774.322 438.103 773.442 438.765C771.569 440.153 770.132 442.047 769.301 444.225C767.493 448.894 767.322 454.039 768.817 458.818C770.268 464.161 773.568 468.816 778.13 471.953C782.692 475.09 788.22 476.506 793.728 475.949C799.699 475.518 805.372 473.176 809.908 469.27C814.611 465.17 818.138 459.891 820.126 453.976C821.199 450.966 821.906 447.838 822.23 444.659C822.628 441.447 822.447 438.19 821.695 435.042C821.034 431.845 819.259 428.987 816.686 426.977C815.373 426.032 813.831 425.454 812.219 425.304C810.607 425.155 808.985 425.438 807.52 426.126C804.504 427.486 802.051 429.845 800.574 432.804C799.092 435.705 798.701 439.041 799.472 442.205C800.278 445.302 801.723 448.197 803.712 450.704C805.702 453.211 808.193 455.275 811.026 456.764C812.416 457.487 813.849 458.123 815.317 458.668C819.724 460.104 824.4 460.521 828.992 459.887C831.972 459.472 834.885 458.669 837.658 457.499C840.366 456.343 842.919 454.851 845.255 453.058C849.782 449.599 853.294 444.985 855.423 439.7C856.4 437.182 856.904 434.504 856.909 431.803C856.968 429.195 856.395 426.611 855.239 424.272C854.635 423.18 853.844 422.202 852.902 421.384C851.94 420.613 850.833 420.045 849.646 419.714C848.472 419.489 847.265 419.5 846.095 419.747C844.926 419.993 843.817 420.47 842.834 421.15C840.889 422.429 839.358 424.244 838.426 426.376C837.577 428.441 837.295 430.694 837.607 432.905C838.241 437.053 840.267 440.862 843.351 443.707C846.119 446.227 849.426 448.083 853.019 449.134C856.158 450.017 859.408 450.444 862.669 450.403C865.416 450.385 868.157 450.15 870.867 449.702C874.631 449.085 878.359 448.272 882.037 447.264L884.909 446.479L885.828 446.429Z" fill="#263238"/>
<path d="M801.726 55.8789H675.699V104.066H801.726V55.8789Z" fill="#E0E0E0"/>
<path d="M801.723 104.048C801.723 104.048 801.723 103.747 801.723 103.18C801.723 102.612 801.723 101.76 801.723 100.675C801.723 98.4544 801.723 95.2487 801.723 91.1079C801.723 82.7595 801.623 70.7879 801.556 55.8777L801.857 56.1783L675.846 56.3119L676.281 55.8777C676.281 72.7081 676.281 88.9874 676.281 104.048L675.863 103.63L766.026 103.831L792.29 103.948H799.352H801.189H801.823C801.629 103.964 801.433 103.964 801.239 103.948H799.452H792.49L766.309 104.065L675.796 104.248H675.379V103.831C675.379 88.8037 675.379 72.491 675.379 55.6607L675.813 55.2266L801.823 55.3601H802.124V55.6607C802.124 70.6878 802.007 82.7094 801.957 91.0745C801.957 95.1819 801.957 98.371 801.957 100.575C801.957 101.627 801.957 102.445 801.957 103.029C801.957 103.614 801.723 104.048 801.723 104.048Z" fill="#263238"/>
<path d="M952.661 797.644H871.047C869.296 797.644 867.615 796.956 866.366 795.729C865.116 794.502 864.399 792.833 864.369 791.082L862.398 570.969H957.269L959.24 790.948C959.244 792.705 958.556 794.393 957.325 795.647C956.093 796.9 954.418 797.617 952.661 797.644Z" fill="url(#paint2_linear_2096_413)"/>
<g opacity="0.3">
<path d="M940.66 619.83V789.286C940.66 789.286 954.018 793.727 954.669 782.039C955.32 770.351 954.969 619.797 954.969 619.797L940.66 619.83Z" fill="white"/>
</g>
<path d="M948.322 559.805H871.517C870.188 559.805 868.914 560.332 867.975 561.272C867.036 562.211 866.508 563.485 866.508 564.814V569.739H953.331V564.73C953.309 563.416 952.772 562.164 951.835 561.242C950.898 560.321 949.636 559.805 948.322 559.805Z" fill="#FAFAFA"/>
<path d="M948.319 559.8C948.596 559.76 948.877 559.76 949.154 559.8C949.978 559.903 950.761 560.22 951.424 560.719C951.975 561.126 952.438 561.641 952.785 562.232C953.132 562.823 953.357 563.478 953.445 564.158C953.445 565.828 953.445 567.497 953.445 569.635V569.835H953.228C937.316 569.952 906.577 570.052 871.413 570.052H865.987V564.96C865.961 564.13 866.123 563.306 866.462 562.548C866.8 561.79 867.306 561.119 867.941 560.585C868.576 560.056 869.324 559.679 870.128 559.483C870.899 559.345 871.683 559.294 872.465 559.333H876.907H893.787L922.172 559.433L941.256 559.567L922.172 559.7L893.787 559.8H876.907H872.465C871.75 559.758 871.033 559.803 870.328 559.934C869.656 560.103 869.03 560.416 868.492 560.852C866.087 562.672 867.056 566.178 866.822 569.201L866.388 568.766H871.397C906.61 568.766 937.349 568.85 953.211 568.983L952.994 569.201C952.994 567.147 952.994 565.294 952.994 563.774C952.93 563.124 952.736 562.493 952.423 561.92C952.11 561.346 951.685 560.841 951.174 560.435C950.294 559.978 949.31 559.759 948.319 559.8Z" fill="#263238"/>
<path d="M962.902 567.348H856.861C854.427 567.348 852.453 569.321 852.453 571.756V615.384C852.453 617.819 854.427 619.792 856.861 619.792H962.902C965.337 619.792 967.31 617.819 967.31 615.384V571.756C967.31 569.321 965.337 567.348 962.902 567.348Z" fill="#FAFAFA"/>
<path d="M962.899 619.828C962.899 619.828 963.2 619.828 963.734 619.695C964.535 619.527 965.271 619.133 965.854 618.559C967.808 617.09 967.023 613.55 967.14 609.493C967.14 601.145 967.057 589.207 967.006 574.43C967.006 573.512 967.006 572.577 967.006 571.625C966.978 570.733 966.655 569.876 966.088 569.187C965.497 568.485 964.694 567.993 963.801 567.785C962.836 567.68 961.864 567.652 960.895 567.701H948.306H920.523H856.891C856.254 567.697 855.626 567.846 855.059 568.137C854.492 568.428 854.004 568.851 853.636 569.371C853.278 569.865 853.043 570.437 852.951 571.04C852.916 571.719 852.916 572.399 852.951 573.077V597.622C852.951 602.931 852.951 608.157 852.951 613.283V615.203C852.953 615.78 853.079 616.349 853.318 616.873C853.556 617.393 853.902 617.856 854.335 618.231C854.767 618.605 855.274 618.882 855.823 619.044C856.393 619.202 856.986 619.259 857.576 619.211H863.119L915.096 619.294L950.159 619.444H959.677L950.159 619.528L915.096 619.661L863.119 619.762H857.576C856.913 619.809 856.246 619.741 855.606 619.561C854.942 619.37 854.328 619.038 853.804 618.589C853.279 618.139 852.858 617.583 852.567 616.957C852.283 616.321 852.136 615.633 852.133 614.936V613.016C852.133 607.896 852.133 602.675 852.133 597.355C852.133 592.028 852.133 586.602 852.133 581.109V572.76C852.133 572.042 852.133 571.391 852.133 570.606C852.247 569.838 852.538 569.106 852.984 568.469C853.432 567.837 854.025 567.322 854.714 566.967C855.403 566.613 856.167 566.429 856.941 566.432H920.573H948.356H960.945C961.965 566.381 962.988 566.42 964.001 566.549C965.036 566.81 965.96 567.395 966.639 568.219C967.285 569.028 967.654 570.023 967.691 571.057V573.879C967.691 588.639 967.574 600.594 967.541 608.942C967.541 610.996 967.541 612.832 967.541 614.435C967.591 615.124 967.486 615.815 967.231 616.457C966.977 617.099 966.58 617.675 966.071 618.142C965.457 618.718 964.683 619.096 963.851 619.227C963.578 619.491 963.254 619.696 962.899 619.828Z" fill="#263238"/>
<path d="M859.129 618.924C858.879 618.924 858.695 607.754 858.695 593.996C858.695 580.238 858.879 569.051 859.129 569.051C859.38 569.051 859.564 580.221 859.564 593.996C859.564 607.771 859.363 618.924 859.129 618.924Z" fill="#263238"/>
<path d="M867.809 618.924C867.559 618.924 867.375 607.754 867.375 593.996C867.375 580.238 867.559 569.051 867.809 569.051C868.06 569.051 868.243 580.221 868.243 593.996C868.243 607.771 868.043 618.924 867.809 618.924Z" fill="#263238"/>
<path d="M876.489 618.924C876.255 618.924 876.055 607.754 876.055 593.996C876.055 580.238 876.255 569.051 876.489 569.051C876.723 569.051 876.923 580.221 876.923 593.996C876.923 607.771 876.723 618.924 876.489 618.924Z" fill="#263238"/>
<path d="M885.176 618.924C884.943 618.924 884.742 607.754 884.742 593.996C884.742 580.238 884.943 569.051 885.176 569.051C885.41 569.051 885.61 580.221 885.61 593.996C885.61 607.771 885.427 618.924 885.176 618.924Z" fill="#263238"/>
<path d="M893.872 618.924C893.621 618.924 893.438 607.754 893.438 593.996C893.438 580.238 893.621 569.051 893.872 569.051C894.122 569.051 894.306 580.221 894.306 593.996C894.306 607.771 894.105 618.924 893.872 618.924Z" fill="#263238"/>
<path d="M902.559 618.924C902.309 618.924 902.125 607.754 902.125 593.996C902.125 580.238 902.309 569.051 902.559 569.051C902.81 569.051 902.993 580.221 902.993 593.996C902.993 607.771 902.793 618.924 902.559 618.924Z" fill="#263238"/>
<path d="M911.239 618.924C911.005 618.924 910.805 607.754 910.805 593.996C910.805 580.238 911.005 569.051 911.239 569.051C911.473 569.051 911.673 580.221 911.673 593.996C911.673 607.771 911.473 618.924 911.239 618.924Z" fill="#263238"/>
<path d="M919.922 618.924C919.689 618.924 919.488 607.754 919.488 593.996C919.488 580.238 919.689 569.051 919.922 569.051C920.156 569.051 920.356 580.221 920.356 593.996C920.356 607.771 920.173 618.924 919.922 618.924Z" fill="#263238"/>
<path d="M928.602 618.924C928.368 618.924 928.168 607.754 928.168 593.996C928.168 580.238 928.368 569.051 928.602 569.051C928.836 569.051 929.053 580.221 929.053 593.996C929.053 607.771 928.853 618.924 928.602 618.924Z" fill="#263238"/>
<path d="M937.301 618.924C937.051 618.924 936.867 607.754 936.867 593.996C936.867 580.238 937.051 569.051 937.301 569.051C937.552 569.051 937.735 580.221 937.735 593.996C937.735 607.771 937.535 618.924 937.301 618.924Z" fill="#263238"/>
<path d="M945.985 618.924C945.751 618.924 945.551 607.754 945.551 593.996C945.551 580.238 945.751 569.051 945.985 569.051C946.219 569.051 946.419 580.221 946.419 593.996C946.419 607.771 946.219 618.924 945.985 618.924Z" fill="#263238"/>
<path d="M954.665 618.924C954.431 618.924 954.23 607.754 954.23 593.996C954.23 580.238 954.431 569.051 954.665 569.051C954.898 569.051 955.099 580.221 955.099 593.996C955.099 607.771 954.915 618.924 954.665 618.924Z" fill="#263238"/>
<path d="M963.352 618.924C963.118 618.924 962.918 607.754 962.918 593.996C962.918 580.238 963.118 569.051 963.352 569.051C963.586 569.051 963.786 580.221 963.786 593.996C963.786 607.771 963.603 618.924 963.352 618.924Z" fill="#263238"/>
<path d="M952.01 659.297H869.879V725.065H952.01V659.297Z" fill="white"/>
<path d="M883.99 680.236L882.07 677.464H879.966V680.236H877.629V670.318H881.92C882.701 670.299 883.476 670.453 884.191 670.769C884.803 671.022 885.326 671.453 885.693 672.004C886.051 672.579 886.231 673.247 886.211 673.924C886.229 674.598 886.043 675.262 885.677 675.828C885.307 676.374 884.784 676.798 884.174 677.047L886.395 680.236H883.99ZM883.406 672.639C882.951 672.31 882.396 672.151 881.836 672.188H879.966V675.644H881.836C882.396 675.682 882.951 675.522 883.406 675.193C883.576 675.027 883.711 674.828 883.804 674.609C883.896 674.39 883.943 674.154 883.943 673.916C883.943 673.678 883.896 673.443 883.804 673.223C883.711 673.004 883.576 672.805 883.406 672.639Z" fill="#263238"/>
<path d="M888.995 687.083L886.724 683.827L884.503 687.083H882.016L885.489 682.308L882.149 677.699H884.62L886.774 680.738L888.895 677.699H891.249L887.91 682.224L891.399 687.083H888.995Z" fill="#263238"/>
<path d="M945.987 670.301H899.086V677.43H945.987V670.301Z" fill="#E0E0E0"/>
<path d="M940.657 695.129C940.657 695.363 926.966 695.564 910.069 695.564C893.172 695.564 879.48 695.363 879.48 695.129C879.48 694.896 893.172 694.695 910.069 694.695C926.966 694.695 940.657 694.962 940.657 695.129Z" fill="#263238"/>
<path d="M940.657 702.54C940.657 702.79 926.966 702.974 910.069 702.974C893.172 702.974 879.48 702.79 879.48 702.54C879.48 702.289 893.172 702.105 910.069 702.105C926.966 702.105 940.657 702.306 940.657 702.54Z" fill="#263238"/>
<path d="M906.749 711.84H875.059V717.951H906.749V711.84Z" fill="#E0E0E0"/>
<path d="M950.141 723.026C950.141 723.026 950.141 722.626 950.141 721.858C950.141 721.09 950.141 719.954 950.141 718.518C950.141 715.563 950.141 711.305 950.058 705.879C950.058 694.993 949.941 679.498 949.874 660.798L950.225 661.165H871.5C871.4 661.249 872.318 660.347 871.934 660.748V677.311C871.934 682.754 871.934 688.097 871.934 693.306C871.934 703.742 871.934 713.693 871.934 722.96L871.55 722.576L928.319 722.776L944.448 722.876H948.756H950.258C950.258 722.876 950.158 722.876 949.908 722.876H948.839H944.615L928.569 722.976L871.533 723.177H871.149V722.776C871.149 713.509 871.149 703.558 871.149 693.123C871.149 687.913 871.149 682.57 871.149 677.127V660.564C870.765 660.931 871.683 660.013 871.583 660.113H950.308H950.676V660.48C950.676 679.264 950.525 694.859 950.492 705.795C950.492 711.172 950.409 715.413 950.392 718.351C950.392 719.754 950.392 720.839 950.392 721.691C950.392 722.542 950.141 723.026 950.141 723.026Z" fill="#263238"/>
<path d="M867.809 779.698C867.559 779.698 867.375 745.37 867.375 703.027C867.375 660.684 867.559 626.355 867.809 626.355C868.06 626.355 868.243 660.684 868.243 703.027C868.243 745.37 868.043 779.698 867.809 779.698Z" fill="white"/>
<path d="M952.098 794.071C952.098 794.305 934.182 794.505 912.025 794.505C889.869 794.505 871.953 794.305 871.953 794.071C871.953 793.837 889.869 793.637 912.025 793.637C934.182 793.637 952.098 793.837 952.098 794.071Z" fill="#263238"/>
<path d="M1033.49 797.549H967.374C965.957 797.549 964.597 796.989 963.59 795.992C962.583 794.994 962.011 793.64 961.998 792.223L960.328 613.918H1037.13L1038.72 792.122C1038.74 793.533 1038.2 794.893 1037.22 795.909C1036.24 796.924 1034.9 797.514 1033.49 797.549Z" fill="#455A64"/>
<g opacity="0.3">
<path d="M1023.76 653.453V790.767C1023.76 790.767 1034.58 794.357 1035.11 784.89C1035.65 775.423 1035.35 653.453 1035.35 653.453H1023.76Z" fill="white"/>
</g>
<path d="M1029.02 604.801H968.626C967.298 604.801 966.024 605.329 965.084 606.268C964.145 607.207 963.617 608.481 963.617 609.81V612.799H1033.98V609.81C1033.98 608.49 1033.46 607.223 1032.53 606.285C1031.6 605.348 1030.34 604.814 1029.02 604.801Z" fill="#FAFAFA"/>
<path d="M1029.02 604.8C1029.26 604.767 1029.5 604.767 1029.74 604.8C1030.45 604.86 1031.14 605.089 1031.74 605.468C1032.75 606.079 1033.52 607.016 1033.91 608.122C1034.14 608.828 1034.25 609.569 1034.22 610.31C1034.22 611.094 1034.22 611.979 1034.22 612.781V613.148H1034C1020.99 613.282 996.564 613.365 968.631 613.365H963.188V612.931C963.188 611.662 963.188 610.51 963.188 609.174C963.379 607.863 964.043 606.668 965.055 605.813C966.067 604.958 967.356 604.502 968.681 604.533H972.22H985.661L1008.27 604.616L1023.41 604.75L1027.52 604.833C1027.99 604.825 1028.47 604.853 1028.94 604.917C1028.47 604.953 1027.99 604.953 1027.52 604.917L1023.41 605L1008.27 605.134L985.661 605.234H968.764C967.658 605.207 966.578 605.58 965.725 606.286C964.853 607.002 964.286 608.022 964.139 609.141C964.039 610.243 964.139 611.562 964.139 612.781L963.705 612.347H968.714C996.648 612.347 1021.08 612.43 1034.08 612.564L1033.86 612.781C1033.86 611.913 1033.86 611.111 1033.86 610.31C1033.92 609.611 1033.84 608.908 1033.63 608.239C1033.29 607.185 1032.6 606.277 1031.68 605.668C1030.87 605.174 1029.96 604.876 1029.02 604.8Z" fill="#263238"/>
<path d="M1040.96 610.977H956.72C954.286 610.977 952.312 612.95 952.312 615.384V649.062C952.312 651.496 954.286 653.47 956.72 653.47H1040.96C1043.39 653.47 1045.36 651.496 1045.36 649.062V615.384C1045.36 612.95 1043.39 610.977 1040.96 610.977Z" fill="#FAFAFA"/>
<path d="M1040.94 653.448C1041.83 653.383 1042.68 653.084 1043.41 652.58C1044.26 651.951 1044.85 651.039 1045.08 650.009C1045.19 649.335 1045.22 648.652 1045.17 647.972C1045.17 647.237 1045.17 646.436 1045.17 645.618C1045.17 638.939 1045.08 629.271 1045.03 617.383C1045.03 616.649 1045.03 615.864 1045.03 615.129C1044.99 614.412 1044.75 613.72 1044.35 613.126C1043.93 612.506 1043.36 612.01 1042.69 611.69C1042.01 611.37 1041.27 611.237 1040.53 611.306H1030.37H1008H956.724C955.695 611.309 954.706 611.711 953.965 612.427C953.225 613.142 952.789 614.117 952.751 615.146C952.751 617.383 952.751 619.604 952.751 621.825V634.915C952.751 639.212 952.751 643.419 952.751 647.538C952.66 648.51 952.756 649.49 953.034 650.426C953.387 651.285 954.016 652.002 954.821 652.463C955.663 652.882 956.606 653.056 957.543 652.964H960.515L1002.39 653.064L1030.62 653.198H1038.3L1030.62 653.281L1002.39 653.415L960.515 653.515H957.543C956.499 653.701 955.425 653.597 954.437 653.215C953.465 652.66 952.707 651.796 952.283 650.76C952.077 650.227 951.964 649.662 951.949 649.091V647.538C951.949 643.419 951.949 639.212 951.949 634.915V615.213C951.997 613.959 952.527 612.772 953.43 611.901C954.332 611.03 955.537 610.541 956.791 610.538H1008.07H1030.44H1040.59C1041.44 610.494 1042.29 610.669 1043.06 611.046C1043.82 611.423 1044.48 611.99 1044.97 612.692C1045.42 613.385 1045.68 614.186 1045.72 615.012C1045.72 615.814 1045.72 616.549 1045.72 617.3C1045.72 629.188 1045.6 638.822 1045.57 645.534C1045.57 646.352 1045.57 647.204 1045.57 647.888C1045.6 648.587 1045.56 649.287 1045.43 649.975C1045.17 651.067 1044.51 652.021 1043.58 652.647C1043.02 653.03 1042.37 653.271 1041.69 653.348C1041.45 653.426 1041.2 653.46 1040.94 653.448Z" fill="#263238"/>
<path d="M957.778 652.749C957.544 652.749 957.344 643.716 957.344 632.562C957.344 621.409 957.544 612.359 957.778 612.359C958.012 612.359 958.212 621.392 958.212 632.562C958.212 643.733 957.945 652.749 957.778 652.749Z" fill="#263238"/>
<path d="M964.735 652.749C964.501 652.749 964.301 643.716 964.301 632.562C964.301 621.409 964.501 612.359 964.735 612.359C964.969 612.359 965.169 621.392 965.169 632.562C965.169 643.733 964.985 652.749 964.735 652.749Z" fill="#263238"/>
<path d="M971.778 652.749C971.527 652.749 971.344 643.716 971.344 632.562C971.344 621.409 971.527 612.359 971.778 612.359C972.028 612.359 972.212 621.392 972.212 632.562C972.212 643.733 972.012 652.749 971.778 652.749Z" fill="#263238"/>
<path d="M978.809 652.749C978.575 652.749 978.375 643.716 978.375 632.562C978.375 621.409 978.575 612.359 978.809 612.359C979.043 612.359 979.243 621.392 979.243 632.562C979.243 643.733 979.06 652.749 978.809 652.749Z" fill="#263238"/>
<path d="M985.852 652.749C985.602 652.749 985.418 643.716 985.418 632.562C985.418 621.409 985.602 612.359 985.852 612.359C986.103 612.359 986.286 621.392 986.286 632.562C986.286 643.733 986.153 652.749 985.852 652.749Z" fill="#263238"/>
<path d="M992.84 652.749C992.607 652.749 992.406 643.716 992.406 632.562C992.406 621.409 992.607 612.359 992.84 612.359C993.074 612.359 993.275 621.392 993.275 632.562C993.275 643.733 993.141 652.749 992.84 652.749Z" fill="#263238"/>
<path d="M999.934 652.749C999.684 652.749 999.5 643.716 999.5 632.562C999.5 621.409 999.684 612.359 999.934 612.359C1000.18 612.359 1000.37 621.392 1000.37 632.562C1000.37 643.733 1000.17 652.749 999.934 652.749Z" fill="#263238"/>
<path d="M1006.96 652.749C1006.73 652.749 1006.53 643.716 1006.53 632.562C1006.53 621.409 1006.73 612.359 1006.96 612.359C1007.2 612.359 1007.4 621.392 1007.4 632.562C1007.4 643.733 1007.2 652.749 1006.96 652.749Z" fill="#263238"/>
<path d="M1014.01 652.749C1013.76 652.749 1013.55 643.716 1013.55 632.562C1013.55 621.409 1013.76 612.359 1014.01 612.359C1014.26 612.359 1014.44 621.392 1014.44 632.562C1014.44 643.733 1014.24 652.749 1014.01 652.749Z" fill="#263238"/>
<path d="M1021.04 652.749C1020.8 652.749 1020.6 643.716 1020.6 632.562C1020.6 621.409 1020.8 612.359 1021.04 612.359C1021.27 612.359 1021.47 621.392 1021.47 632.562C1021.47 643.733 1021.22 652.749 1021.04 652.749Z" fill="#263238"/>
<path d="M1028.07 652.749C1027.83 652.749 1027.63 643.716 1027.63 632.562C1027.63 621.409 1027.83 612.359 1028.07 612.359C1028.3 612.359 1028.5 621.392 1028.5 632.562C1028.5 643.733 1028.32 652.749 1028.07 652.749Z" fill="#263238"/>
<path d="M1035.11 652.749C1034.86 652.749 1034.68 643.716 1034.68 632.562C1034.68 621.409 1034.86 612.359 1035.11 612.359C1035.36 612.359 1035.54 621.392 1035.54 632.562C1035.54 643.733 1035.34 652.749 1035.11 652.749Z" fill="#263238"/>
<path d="M1042.14 652.749C1041.91 652.749 1041.71 643.716 1041.71 632.562C1041.71 621.409 1041.91 612.359 1042.14 612.359C1042.37 612.359 1042.58 621.392 1042.58 632.562C1042.58 643.733 1042.39 652.749 1042.14 652.749Z" fill="#263238"/>
<path d="M1032.96 685.461H966.422V738.74H1032.96V685.461Z" fill="white"/>
<path d="M977.81 702.427L976.274 700.19H974.604V702.427H972.801V694.396H976.14C976.776 694.38 977.408 694.499 977.993 694.747C978.487 694.958 978.906 695.313 979.196 695.765C979.479 696.231 979.628 696.765 979.628 697.31C979.628 697.854 979.479 698.389 979.196 698.854C978.897 699.297 978.472 699.64 977.977 699.839L979.78 702.427H977.81ZM977.342 696.266C976.971 696.008 976.524 695.885 976.073 695.915H974.554V698.704H976.14C976.594 698.738 977.044 698.608 977.409 698.336C977.558 698.21 977.675 698.051 977.75 697.871C977.826 697.691 977.858 697.496 977.843 697.301C977.852 697.104 977.815 696.907 977.734 696.728C977.652 696.548 977.53 696.389 977.376 696.266H977.342Z" fill="#263238"/>
<path d="M981.918 707.964L980.081 705.326L978.278 707.964H976.258L979.063 704.091L976.391 700.367H978.395L980.065 702.822L981.734 700.367H983.638L981.15 704.024L983.972 707.964H981.918Z" fill="#263238"/>
<path d="M1028.07 694.375H990.082V700.152H1028.07V694.375Z" fill="#E0E0E0"/>
<path d="M1023.76 714.481C1023.76 714.731 1012.67 714.915 998.981 714.915C985.29 714.915 974.203 714.731 974.203 714.481C974.203 714.231 985.29 714.047 998.981 714.047C1012.67 714.047 1023.76 714.247 1023.76 714.481Z" fill="#263238"/>
<path d="M1023.76 720.504C1023.76 720.738 1012.67 720.939 998.981 720.939C985.29 720.939 974.203 720.738 974.203 720.504C974.203 720.271 985.29 720.07 998.981 720.07C1012.67 720.07 1023.76 720.254 1023.76 720.504Z" fill="#263238"/>
<path d="M996.293 728.023H970.613V732.966H996.293V728.023Z" fill="#E0E0E0"/>
<path d="M1031.44 737.105C1031.44 737.105 1031.44 736.754 1031.44 736.137C1031.44 735.519 1031.44 734.567 1031.44 733.432C1031.44 731.011 1031.44 727.555 1031.35 723.18C1031.35 714.347 1031.24 701.808 1031.17 686.681L1031.52 687.048H967.757L968.191 686.614V693.293C968.191 695.547 968.191 697.768 968.191 699.972V712.928C968.191 721.377 968.191 729.425 968.191 736.955L967.807 736.554L1013.77 736.754L1026.86 736.855H1030.35H1031.25H1031.57H1030.44H1027.1L1014.09 736.955L967.874 737.155H967.473V736.771C967.473 729.241 967.473 721.193 967.473 712.745V686.364C967.089 686.748 968.007 685.829 967.924 685.93H1031.69H1032.06V686.614C1032.06 701.825 1031.91 714.464 1031.87 723.347C1031.87 727.688 1031.79 731.111 1031.77 733.499C1031.77 734.617 1031.77 735.502 1031.77 736.153C1031.69 736.479 1031.58 736.798 1031.44 737.105Z" fill="#263238"/>
<path d="M964.735 783.001C964.501 783.001 964.301 755.184 964.301 720.889C964.301 686.594 964.501 658.777 964.735 658.777C964.969 658.777 965.169 686.577 965.169 720.889C965.169 755.201 964.985 783.001 964.735 783.001Z" fill="white"/>
<path d="M1033.03 794.637C1033.03 794.888 1018.5 795.071 1000.6 795.071C982.705 795.071 968.195 794.888 968.195 794.637C968.195 794.387 982.705 794.203 1000.6 794.203C1018.5 794.203 1033.03 794.404 1033.03 794.637Z" fill="#263238"/>
<path d="M499.133 726.232L488.063 765.553C488.063 765.553 523.343 790.298 521.991 797.761L446.855 778.443L461.665 716.465L499.133 726.232Z" fill="#455A64"/>
<path d="M465.622 756.253C464.835 756.306 464.095 756.647 463.544 757.21C462.992 757.774 462.668 758.521 462.633 759.309C462.636 760.097 462.94 760.854 463.483 761.425C464.027 761.996 464.768 762.338 465.555 762.381C466.391 762.335 467.18 761.977 467.764 761.377C468.349 760.777 468.687 759.979 468.71 759.142C468.56 757.556 466.84 755.903 465.371 756.287" fill="#E0E0E0"/>
<g opacity="0.6">
<path d="M446.852 778.44L448.521 772.262L519.95 793.049C519.95 793.049 522.939 795.387 521.97 797.708L446.852 778.44Z" fill="white"/>
</g>
<path d="M489.385 765.47C489.268 765.854 487.398 765.47 485.294 766.288C483.19 767.106 481.838 768.375 481.537 768.141C481.237 767.907 482.322 765.87 484.876 765.019C487.431 764.167 489.535 765.086 489.385 765.47Z" fill="#263238"/>
<path d="M496.444 770.829C496.444 771.229 494.775 771.446 493.105 772.732C491.435 774.018 490.701 775.587 490.333 775.47C489.966 775.353 490.333 773.183 492.32 771.647C494.307 770.111 496.528 770.478 496.444 770.829Z" fill="#263238"/>
<path d="M498.617 781.65C498.266 781.65 498.216 779.646 499.652 777.826C501.088 776.006 502.992 775.622 503.092 775.973C503.192 776.323 501.84 777.158 500.671 778.678C499.502 780.197 498.934 781.783 498.617 781.65Z" fill="#263238"/>
<path d="M490.931 756.231C490.681 756.532 489.128 755.58 487.024 755.196C484.92 754.812 483.134 755.063 483.017 754.678C482.9 754.294 484.787 753.376 487.258 753.86C489.729 754.345 491.182 755.981 490.931 756.231Z" fill="#263238"/>
<path d="M472.787 735.496L471.117 776.369C471.117 776.369 511.189 791.914 511.49 799.511L434 798.893L434.167 735.078L472.787 735.496Z" fill="#455A64"/>
<path d="M447.105 772.745C446.351 772.981 445.708 773.484 445.299 774.161C444.89 774.838 444.743 775.64 444.885 776.418C445.061 777.185 445.529 777.854 446.19 778.281C446.851 778.708 447.653 778.86 448.424 778.706C449.225 778.454 449.906 777.918 450.337 777.197C450.768 776.477 450.919 775.623 450.762 774.799C450.495 774.027 449.937 773.39 449.207 773.025C448.477 772.66 447.632 772.595 446.855 772.845" fill="#E0E0E0"/>
<g opacity="0.6">
<path d="M433.914 798.893L434.181 792.465L508.382 795.454C508.382 795.454 511.821 797.023 511.404 799.511L433.914 798.893Z" fill="white"/>
</g>
<path d="M472.302 775.988C472.302 776.372 470.398 776.539 468.512 777.758C466.625 778.977 465.64 780.613 465.289 780.463C464.939 780.313 465.523 778.075 467.827 776.623C470.131 775.17 472.385 775.621 472.302 775.988Z" fill="#263238"/>
<path d="M480.4 779.492C480.4 779.859 478.847 780.51 477.545 782.146C476.242 783.783 475.875 785.486 475.491 785.486C475.107 785.486 474.89 783.265 476.543 781.278C478.196 779.291 480.4 779.124 480.4 779.492Z" fill="#263238"/>
<path d="M484.943 789.495C484.592 789.578 484.092 787.641 485.077 785.521C486.062 783.4 487.832 782.565 487.999 782.899C488.166 783.233 487.047 784.352 486.329 786.088C485.611 787.825 485.26 789.461 484.943 789.495Z" fill="#263238"/>
<path d="M471.682 766.618C471.532 766.969 469.795 766.418 467.658 766.618C465.521 766.818 463.835 767.436 463.651 767.102C463.467 766.768 465.07 765.433 467.591 765.266C470.113 765.099 471.899 766.318 471.682 766.618Z" fill="#263238"/>
<path d="M424.848 436.344V468.669L433.314 594.596C433.314 594.596 428.038 655.689 424.798 690.184C421.993 720.122 426.585 772.282 426.585 772.282H475.907L493.606 598.352L504.559 489.823L523.66 440.501L424.848 436.344Z" fill="#263238"/>
<path d="M554.734 441.97L545.284 617.67L495.394 749.223L493.09 757.138L463.637 749.841L485.543 438.547L554.734 441.97Z" fill="#263238"/>
<path d="M504.393 491.156C504.411 491.401 504.411 491.646 504.393 491.891C504.393 492.425 504.393 493.126 504.393 494.028C504.393 495.965 504.259 498.737 504.142 502.276C503.942 509.422 503.441 519.758 502.74 532.531C501.254 558.077 498.482 593.324 494.141 632.127C489.8 670.93 485.175 705.96 481.735 731.306C480.066 743.928 478.58 754.163 477.594 761.36C477.093 764.866 476.693 767.604 476.426 769.508C476.275 770.409 476.175 771.177 476.092 771.628C476.064 771.872 476.013 772.112 475.941 772.346V771.612C475.941 771.094 476.092 770.393 476.192 769.491C476.426 767.571 476.76 764.833 477.194 761.31C478.095 754.18 479.414 743.928 481.051 731.255C484.39 705.893 488.915 670.863 493.189 632.06C497.464 593.257 500.385 558.077 502.038 532.548C502.823 519.791 503.424 509.456 503.708 502.31C503.892 498.77 504.025 496.015 504.126 494.078C504.126 493.177 504.226 492.409 504.259 491.941C504.275 491.675 504.32 491.412 504.393 491.156Z" fill="#455A64"/>
<path d="M507.516 447.21C507.503 447.709 507.343 448.193 507.057 448.601C506.77 449.01 506.369 449.325 505.904 449.507C505.44 449.689 504.931 449.729 504.444 449.624C503.956 449.519 503.51 449.272 503.162 448.914C502.813 448.557 502.578 448.105 502.486 447.614C502.393 447.124 502.447 446.617 502.641 446.157C502.835 445.698 503.16 445.305 503.576 445.029C503.991 444.753 504.479 444.606 504.978 444.605C505.317 444.608 505.651 444.677 505.963 444.809C506.274 444.942 506.556 445.135 506.792 445.377C507.028 445.62 507.214 445.906 507.338 446.221C507.462 446.536 507.523 446.872 507.516 447.21Z" fill="#455A64"/>
<path d="M550.877 471.756C549.564 470.816 548.394 469.692 547.404 468.416C544.854 465.4 542.761 462.024 541.193 458.398C539.616 454.778 538.57 450.948 538.088 447.028C537.808 445.417 537.769 443.774 537.971 442.152C538.121 442.152 538.221 444.006 538.722 446.944C539.396 450.753 540.517 454.468 542.061 458.014C543.614 461.536 545.582 464.86 547.922 467.915C549.692 470.32 550.977 471.639 550.877 471.756Z" fill="#455A64"/>
<path d="M544.98 277.84C544.98 277.84 554.414 281.547 558.789 295.371C561.827 304.989 576.053 376.584 576.053 376.584L556.217 389.658L548.153 322.621L544.98 277.84Z" fill="#E0E0E0"/>
<path d="M469.547 243.645L463.336 254.664C463.336 254.664 421.811 275.769 421.961 277.839C421.961 277.839 424.282 356.615 424.716 414.402C424.883 436.225 424.082 456.278 423.647 465.912C422.495 491.207 421.594 589.468 421.594 589.468L571.864 585.911L544.983 277.839L523.778 268.573L521.073 263.046L511.339 255.132L469.547 243.645Z" fill="#E0E0E0"/>
<path d="M535.35 586.726C535.372 586.504 535.372 586.28 535.35 586.058C535.35 585.574 535.35 584.923 535.267 584.104C535.166 582.318 535.033 579.78 534.849 576.541C534.465 569.946 533.897 560.462 533.18 548.791C531.76 525.315 529.84 492.957 527.653 457.209C525.466 421.461 523.729 389.103 522.377 365.611C521.759 353.923 521.241 344.456 520.891 337.844C520.707 334.605 520.573 332.084 520.473 330.297C520.473 329.479 520.373 328.828 520.34 328.344C520.327 328.119 520.299 327.896 520.256 327.676C520.238 327.898 520.238 328.121 520.256 328.344C520.256 328.828 520.256 329.479 520.256 330.314C520.256 332.084 520.39 334.622 520.507 337.861C520.74 344.423 521.158 353.923 521.709 365.644C522.811 389.02 524.581 421.495 526.718 457.276C528.855 493.057 530.925 525.399 532.512 548.824C533.313 560.512 533.981 569.962 534.432 576.574C534.682 579.797 534.883 582.335 535.016 584.104L535.183 586.075C535.214 586.297 535.27 586.516 535.35 586.726Z" fill="#263238"/>
<path d="M511.338 255.13L514.827 279.257L521.072 327.677L493.856 280.96L470.23 250.004L509.167 277.286L509.651 254.679" fill="url(#paint3_linear_2096_413)"/>
<path d="M463.152 256.137C463.342 256.788 463.594 257.42 463.904 258.023C464.488 259.343 465.256 261.096 466.225 263.25L474.673 281.616L474.773 281.85H475.04H480.717L480.45 281.082L476.276 284.504L475.892 284.822L476.243 285.172L484.157 292.92L509.619 317.614L517.4 325.011L519.554 326.998C519.789 327.245 520.053 327.463 520.339 327.649C520.155 327.357 519.93 327.092 519.671 326.864L517.651 324.76L510.054 317.147L484.791 292.269C482.07 289.597 479.398 287.009 476.86 284.538V285.189L481.018 281.75L481.936 280.981H480.734H475.057L475.424 281.215C471.868 273.802 468.863 267.524 466.675 262.982C465.623 260.862 464.789 259.142 464.154 257.857C463.866 257.258 463.531 256.683 463.152 256.137Z" fill="#263238"/>
<path d="M521.075 327.629C521.335 326.642 521.519 325.637 521.626 324.623C521.927 322.536 522.311 319.764 522.778 316.408C523.713 309.462 524.949 299.862 526.251 289.259L527.454 279.375V278.991L527.069 278.891L520.24 277.221V278.022L527.086 276.804L527.554 276.72L527.353 276.303L522.845 266.502C522.328 265.45 521.91 264.565 521.56 263.847C521.435 263.521 521.26 263.217 521.042 262.945C521.112 263.286 521.224 263.617 521.376 263.93C521.676 264.665 522.044 265.6 522.478 266.669C523.546 269.173 524.982 272.529 526.702 276.587L526.969 276.102L520.107 277.221L518.137 277.538L520.074 278.022L526.886 279.692L526.552 279.225C526.151 282.364 525.75 285.686 525.316 289.092C524.014 299.712 522.879 309.312 522.111 316.275C521.76 319.614 521.459 322.436 521.242 324.623C521.109 325.619 521.053 326.624 521.075 327.629Z" fill="#263238"/>
<path d="M497.846 456.543H496.878L493.989 456.727L482.902 457.528L443.198 460.584H442.797V460.985C443.431 468.448 444.133 476.563 444.867 485.111C445.235 489.408 445.613 493.799 446.003 498.285C446.203 500.539 446.387 502.793 446.587 505.081C446.657 506.265 446.842 507.439 447.138 508.587C447.49 509.773 448.02 510.899 448.708 511.926C450.955 514.96 454.309 516.982 458.041 517.553C461.552 517.988 465.089 518.178 468.627 518.121C475.304 518.139 481.963 517.411 488.479 515.95C490.025 515.576 491.538 515.079 493.004 514.464C493.734 514.169 494.438 513.811 495.108 513.396C495.447 513.169 495.766 512.912 496.06 512.628C496.329 512.332 496.58 512.02 496.811 511.693C498.234 509.074 499.114 506.195 499.399 503.227C500.056 498.018 500.319 492.765 500.184 487.516C500.033 477.898 499.349 470.151 498.831 464.808C498.581 462.137 498.33 460.083 498.147 458.68C498.147 458.013 497.98 457.495 497.93 457.011C497.92 456.828 497.881 456.647 497.813 456.477C497.813 456.477 497.813 456.66 497.813 457.028C497.813 457.395 497.813 457.963 497.946 458.697C498.08 460.167 498.247 462.22 498.464 464.842C498.881 470.185 499.466 477.932 499.532 487.516C499.608 492.728 499.312 497.94 498.647 503.111C498.352 505.961 497.495 508.724 496.126 511.242C495.264 512.417 494.046 513.283 492.653 513.713C491.23 514.303 489.762 514.778 488.262 515.132C481.809 516.556 475.218 517.261 468.61 517.236C465.128 517.288 461.647 517.098 458.191 516.668C454.691 516.136 451.542 514.247 449.425 511.409C448.811 510.478 448.328 509.467 447.99 508.403C447.713 507.309 447.54 506.191 447.472 505.064C447.272 502.777 447.071 500.506 446.888 498.252C446.487 493.777 446.103 489.369 445.719 485.095C444.951 476.529 444.233 468.398 443.565 460.968L443.214 461.402L482.635 457.963L493.789 456.944L496.761 456.66C497.125 456.647 497.487 456.608 497.846 456.543Z" fill="#263238"/>
<g opacity="0.3">
<path d="M447.227 507.516C451.468 518.569 462.538 519.203 474.459 517.534C485.663 515.864 496.449 513.543 497.284 510.337C496.983 516.198 492.675 520.689 487.266 523.044C481.773 525.143 475.876 525.97 470.018 525.465C463.89 525.181 458.597 525.465 453.538 521.975C448.479 518.485 447.21 512.558 447.227 507.516Z" fill="black"/>
</g>
<path d="M560.879 459.967C560.864 459.828 560.864 459.688 560.879 459.55L560.729 458.348C560.617 457.234 560.45 455.682 560.228 453.689C559.827 449.548 559.259 443.671 558.558 436.525C557.189 422.032 555.352 401.996 553.416 379.873C551.479 357.75 549.809 337.697 548.69 323.104C548.139 315.841 547.739 309.964 547.505 305.906C547.371 303.869 547.321 302.3 547.288 301.214C547.288 300.73 547.288 300.329 547.288 299.996C547.263 299.857 547.263 299.716 547.288 299.578C547.689 304.287 550.477 336.194 554.284 379.723C556.187 401.829 557.924 421.832 559.176 436.408C559.76 443.604 560.244 449.448 560.578 453.589C560.729 455.559 560.846 457.129 560.929 458.264C560.929 458.748 560.929 459.149 560.929 459.483C560.936 459.646 560.919 459.809 560.879 459.967Z" fill="#263238"/>
<path d="M582.649 378.165C583.29 380.478 583.527 382.884 583.35 385.277C582.999 388.934 582.832 397.917 573.098 400.989C563.364 404.061 558.639 401.123 555.65 396.998L554.164 379.133L564.583 372.254L582.649 378.165Z" fill="#E0E0E0"/>
<g opacity="0.3">
<path d="M501.323 389.656C501.323 389.656 476.428 414.251 457.093 417.79C437.758 421.33 430.846 414.451 425.703 397.136L501.323 389.656Z" fill="black"/>
</g>
<path d="M422.409 277.242C422.409 277.242 406.597 291.902 411.105 326.614C415.28 358.873 422.793 403.787 432.611 409.013C442.429 414.239 463.884 411.618 479.529 402.752C495.174 393.886 540.505 369.909 540.505 369.909L521.738 336.516L461.279 359.891C461.279 359.891 453.465 306.461 448.773 297.178" fill="#E0E0E0"/>
<path d="M448.526 296.557C448.526 296.557 448.693 296.908 448.993 297.592C449.127 297.926 449.327 298.343 449.528 298.861C449.728 299.379 449.895 300.013 450.129 300.698C451.014 303.469 452.065 307.627 453.218 313.037C455.555 323.839 458.377 339.601 461.349 359.236L460.915 358.969L521.34 335.427L521.674 335.293L521.858 335.611C527.785 346.163 534.097 357.316 540.642 369.004L540.859 369.405L540.458 369.622L501.688 390.51L482.671 400.745C479.548 402.414 476.443 404.167 473.22 405.553C470.005 406.912 466.703 408.055 463.336 408.976C456.778 410.813 449.97 411.602 443.166 411.314C439.849 411.166 436.581 410.461 433.499 409.227L432.363 408.726C431.996 408.542 431.645 408.275 431.278 408.041C430.658 407.515 430.098 406.921 429.608 406.271C428.615 404.99 427.758 403.608 427.054 402.147C424.449 396.532 422.413 390.67 420.976 384.649C419.457 378.855 418.255 373.162 417.169 367.635C415.032 356.598 413.446 346.246 412.16 336.779C410.875 327.312 409.656 318.697 410.006 311.066C410.171 304.545 411.331 298.087 413.446 291.915C414.817 288.028 416.746 284.361 419.173 281.029C419.81 280.168 420.502 279.348 421.243 278.575C421.497 278.315 421.764 278.07 422.045 277.84L421.31 278.641C420.602 279.433 419.939 280.264 419.323 281.129C416.973 284.485 415.106 288.155 413.78 292.032C411.708 298.177 410.582 304.6 410.44 311.083C410.14 318.663 411.342 327.229 412.711 336.679C414.08 346.13 415.7 356.482 417.871 367.501C418.956 372.995 420.175 378.672 421.711 384.449C423.14 390.411 425.16 396.217 427.738 401.78C428.413 403.176 429.224 404.501 430.159 405.737C430.653 406.353 431.213 406.913 431.829 407.407C432.137 407.624 432.461 407.82 432.797 407.991L433.866 408.475C436.873 409.651 440.056 410.312 443.283 410.429C449.992 410.703 456.703 409.92 463.169 408.108C466.487 407.205 469.744 406.089 472.92 404.769C476.125 403.383 479.164 401.663 482.303 399.993L501.321 389.741L540.107 368.871L539.924 369.472L521.19 336.078L521.708 336.262L461.215 359.637L460.831 359.787V359.387C457.943 339.768 455.221 323.99 453 313.17C451.915 307.76 450.913 303.586 450.079 300.815C449.878 300.13 449.695 299.512 449.528 298.978L449.043 297.692C448.709 296.924 448.526 296.557 448.526 296.557Z" fill="#263238"/>
<path d="M470.234 336.559H500.238V326.574H470.234V336.559Z" fill="white"/>
<path d="M476.445 330.968C479.54 330.518 482.672 330.367 485.795 330.517C488.925 330.367 492.062 330.518 495.162 330.968C492.06 331.397 488.924 331.542 485.795 331.402C482.672 331.542 479.542 331.397 476.445 330.968Z" fill="#263238"/>
<g opacity="0.3">
<path d="M519.552 327.028L475.389 291.196L476.441 288.074H472.601L466.223 263.246L475.406 281.279L480.715 281.028L476.858 284.568L519.552 327.028Z" fill="black"/>
</g>
<path d="M465.008 286.187L466.678 285.519C466.678 285.436 463.055 276.804 459.499 267.654C458.221 264.842 457.703 261.745 457.996 258.671C458.196 257.704 458.731 256.839 459.507 256.228C460.283 255.617 461.25 255.299 462.237 255.332L463.406 254.714L464.007 253.645C460.918 252.977 456.777 255.565 456.276 258.421C455.95 261.816 456.526 265.237 457.946 268.338C461.369 277.538 464.958 286.104 465.008 286.187Z" fill="#455A64"/>
<path d="M462.401 306.36L464.622 305.492C462.802 300.8 460.314 292.502 461.383 290.164C461.91 289.33 462.608 288.617 463.431 288.073C464.254 287.529 465.184 287.166 466.158 287.008C467.351 286.693 468.6 286.659 469.808 286.908C471.016 287.158 472.15 287.683 473.12 288.444C475.658 290.598 479.499 298.179 480.768 300.934L482.921 299.932C482.738 299.514 478.13 289.546 474.657 286.574C473.407 285.574 471.942 284.879 470.377 284.543C468.812 284.206 467.19 284.239 465.64 284.638C464.295 284.871 463.019 285.405 461.909 286.2C460.799 286.995 459.883 288.03 459.229 289.229C457.426 293.103 461.55 304.256 462.401 306.36Z" fill="#455A64"/>
<path d="M486.381 342.557C489.12 342.557 491.824 341.088 494.412 338.183L493.511 337.381C490.672 340.604 487.734 341.873 484.828 341.188C472.957 338.4 463.907 305.424 463.824 305.09L462.672 305.39C463.056 306.776 471.989 339.402 484.545 342.34C485.146 342.487 485.763 342.559 486.381 342.557Z" fill="#263238"/>
<path d="M492.118 339.532C492.36 339.773 492.68 339.92 493.02 339.944C493.361 339.969 493.698 339.87 493.972 339.665L496.543 337.745C496.735 337.625 496.9 337.468 497.03 337.282C497.159 337.096 497.248 336.885 497.294 336.664C497.339 336.442 497.339 336.213 497.293 335.992C497.247 335.77 497.157 335.56 497.027 335.374C496.891 335.16 496.707 334.98 496.491 334.847C496.274 334.715 496.03 334.633 495.778 334.609C495.525 334.585 495.27 334.619 495.032 334.708C494.795 334.797 494.58 334.939 494.406 335.124L492.085 337.528C491.824 337.799 491.681 338.161 491.688 338.537C491.694 338.913 491.849 339.27 492.118 339.532Z" fill="#263238"/>
<path d="M481.334 343.638C482.879 343.757 484.429 343.487 485.843 342.855C487.257 342.222 488.491 341.246 489.432 340.015C496.728 329.78 482.97 301.362 482.386 300.16L481.317 300.678C481.451 300.978 495.359 329.663 488.464 339.331C486.66 341.852 483.455 342.854 479.08 342.303L478.93 343.472C479.726 343.582 480.53 343.638 481.334 343.638Z" fill="#263238"/>
<path d="M481.552 342.985C481.529 343.324 481.385 343.644 481.146 343.886C480.907 344.128 480.589 344.277 480.25 344.304L477.044 344.571C476.822 344.606 476.595 344.596 476.377 344.542C476.159 344.487 475.954 344.389 475.775 344.254C475.595 344.118 475.445 343.948 475.334 343.752C475.222 343.557 475.15 343.342 475.124 343.118C475.082 342.868 475.099 342.611 475.171 342.367C475.244 342.124 475.372 341.9 475.544 341.713C475.716 341.527 475.929 341.382 476.166 341.289C476.403 341.197 476.657 341.16 476.911 341.182L480.25 341.465C480.622 341.499 480.966 341.677 481.209 341.961C481.453 342.245 481.576 342.612 481.552 342.985Z" fill="#263238"/>
<path d="M538.689 308.128C543.373 308.128 547.171 304.33 547.171 299.646C547.171 294.962 543.373 291.164 538.689 291.164C534.005 291.164 530.207 294.962 530.207 299.646C530.207 304.33 534.005 308.128 538.689 308.128Z" fill="#263238"/>
<path d="M538.689 308.128C543.373 308.128 547.171 304.33 547.171 299.646C547.171 294.962 543.373 291.164 538.689 291.164C534.005 291.164 530.207 294.962 530.207 299.646C530.207 304.33 534.005 308.128 538.689 308.128Z" fill="#263238"/>
<path d="M532.426 299.644C532.423 300.887 532.788 302.103 533.477 303.138C534.165 304.173 535.146 304.98 536.294 305.458C537.441 305.935 538.705 306.061 539.924 305.819C541.144 305.577 542.264 304.979 543.143 304.1C544.022 303.221 544.62 302.101 544.862 300.881C545.104 299.662 544.978 298.398 544.501 297.251C544.023 296.103 543.216 295.122 542.181 294.434C541.146 293.745 539.93 293.38 538.687 293.383C537.026 293.383 535.434 294.042 534.26 295.217C533.085 296.391 532.426 297.984 532.426 299.644Z" fill="#E0E0E0"/>
<path d="M520.691 262.696C521.493 263.848 530.359 282.565 535.201 291.999L536.62 291.264C535.902 289.878 523.012 263.28 522.01 261.794L512.627 254.164L512.293 255.951L520.691 262.696Z" fill="#455A64"/>
<path d="M517.131 299.445C523.275 305.573 538.837 321.519 538.837 321.519L542.994 319.014L521.088 295.639C520.644 295.165 520.046 294.864 519.4 294.791C518.755 294.718 518.104 294.876 517.565 295.238C517.228 295.461 516.945 295.757 516.735 296.103C516.526 296.449 516.396 296.837 516.354 297.239C516.313 297.641 516.361 298.048 516.495 298.429C516.629 298.811 516.847 299.158 517.131 299.445Z" fill="#263238"/>
<path d="M521.559 335.823L526.785 321.097C527.327 319.508 528.336 318.12 529.679 317.113C531.022 316.106 532.638 315.528 534.315 315.453H535.1C538.239 315.804 554.217 316.856 554.217 316.856L560.395 323.785C560.904 324.361 561.184 325.103 561.184 325.872C561.184 326.64 560.904 327.383 560.395 327.959L562.182 340.482L558.726 342.886L559.076 351.635C559.076 351.635 555.954 353.705 554.568 353.021L553.166 352.32L551.095 350.232L545.184 358.581L537.02 363.306L521.559 335.823Z" fill="#FFBF9D"/>
<path d="M560.493 328.662C559.795 327.813 559.048 327.004 558.256 326.241C557.367 325.478 556.357 324.869 555.267 324.438C553.848 324.103 552.4 323.907 550.943 323.854C547.107 323.642 543.294 323.129 539.539 322.317C543.379 322.226 547.22 322.438 551.026 322.952C552.557 323.002 554.077 323.238 555.551 323.653C556.722 324.149 557.787 324.863 558.69 325.757C559.595 326.5 560.229 327.521 560.493 328.662Z" fill="#FF9A6C"/>
<path d="M560.147 340.172C559.79 339.082 559.36 338.017 558.862 336.983C557.436 334.619 555.262 332.797 552.684 331.807C550.061 330.863 547.29 330.394 544.502 330.421C543.333 330.501 542.159 330.468 540.996 330.321C542.126 329.944 543.312 329.764 544.502 329.787C547.392 329.563 550.295 329.962 553.018 330.956C555.788 332.009 558.071 334.049 559.429 336.683C560.056 337.732 560.309 338.961 560.147 340.172Z" fill="#FF9A6C"/>
<path d="M558.572 350.907C557.994 349.854 557.706 348.667 557.737 347.467C557.669 346.236 557.405 345.024 556.953 343.877C556.644 343.22 556.178 342.648 555.595 342.214C555.013 341.78 554.332 341.497 553.613 341.39C550.861 340.8 548.072 340.398 545.265 340.187C544.073 340.14 542.9 339.868 541.809 339.386C542.985 339.358 544.163 339.414 545.332 339.553C548.19 339.576 551.038 339.895 553.83 340.505C554.672 340.714 555.465 341.082 556.168 341.59C556.821 342.1 557.328 342.774 557.637 343.543C558.093 344.783 558.314 346.097 558.288 347.417C558.372 349.588 558.722 350.857 558.572 350.907Z" fill="#FF9A6C"/>
<path d="M567.291 323.289L498.367 394.467L501.022 397.155L550.394 391.595L616.831 328.298L616.764 325.259L567.291 323.289Z" fill="#455A64"/>
<g opacity="0.3">
<path d="M580.193 356.483C578.569 355.002 576.653 353.877 574.568 353.181C572.483 352.485 570.276 352.234 568.088 352.442C563.705 352.891 559.555 354.635 556.166 357.451C553.297 359.553 551.206 362.548 550.222 365.967C548.82 371.944 553.745 380.309 559.172 383.214C566.051 377.688 572.746 369.206 579.625 363.696C580.741 362.974 581.582 361.898 582.013 360.64C582.071 359.852 581.935 359.061 581.618 358.336C581.301 357.612 580.812 356.975 580.193 356.483Z" fill="black"/>
</g>
<path d="M616.56 328.163C616.26 328.184 615.959 328.184 615.659 328.163H613.021L603.136 328.046L568.741 327.445L569.058 327.311L551.794 345.227L515.979 382.077L505.059 393.163L502.054 396.152C501.715 396.51 501.352 396.844 500.969 397.154C501.263 396.768 501.593 396.41 501.954 396.085L504.842 392.98L515.562 381.693C524.728 372.159 537.267 359.085 551.176 344.659C557.27 338.348 563.131 332.304 568.474 326.794L568.607 326.66H568.741L603.086 327.645L612.954 327.996L615.592 328.129C615.915 328.105 616.24 328.116 616.56 328.163Z" fill="#263238"/>
<path d="M573.413 349.035C573.413 349.035 580.092 349.169 582.279 350.254C584.466 351.339 590.444 357.684 590.444 357.684C590.444 357.684 590.444 362.025 588.774 362.192C588.987 363.163 589.105 364.153 589.125 365.148C589.292 367.585 589.642 368.971 586.336 371.058C586.336 371.058 586.687 375.049 585.468 376.067C584.644 376.76 583.774 377.396 582.863 377.971C582.863 377.971 582.68 382.362 576.786 382.312L571.259 384.749C571.259 384.749 558.97 383.597 560.273 382.145C561.575 380.692 564.53 373.496 564.53 373.496C564.53 373.496 556.182 367.368 556.282 365.465C556.382 363.561 557.15 363.378 557.15 363.378C557.15 363.378 556.816 359.738 559.755 359.387C559.755 359.387 562.026 354.862 564.28 354.695C566.534 354.528 581.828 360.072 581.828 360.072L576.101 355.213C576.101 355.213 570.358 354.345 570.541 352.425C570.725 350.504 573.413 349.035 573.413 349.035Z" fill="#FFBF9D"/>
<path d="M572.419 371.927C569.768 370.809 567.176 369.555 564.655 368.17C562.003 367.035 559.412 365.764 556.891 364.363C559.751 364.896 562.507 365.882 565.055 367.285C567.738 368.437 570.222 370.004 572.419 371.927Z" fill="#FF9A6C"/>
<path d="M580.434 366.611C577.009 365.818 573.657 364.735 570.416 363.372C567.087 362.291 563.858 360.923 560.766 359.281C564.191 360.074 567.543 361.158 570.784 362.52C574.113 363.601 577.342 364.97 580.434 366.611Z" fill="#FF9A6C"/>
<path d="M471.604 212.754C469.382 205.182 467.807 197.434 466.896 189.595C465.985 181.719 467.041 173.739 469.968 166.37C470.452 165.268 474.392 158.022 475.561 158.122C476.413 158.239 473.891 165.135 474.259 165.903C477.999 173.149 478.667 181.681 477.598 189.779C476.483 197.634 474.495 205.34 471.671 212.754" fill="#263238"/>
<path d="M472.381 182.65C472.749 162.848 484.587 146.585 504.356 147.587L506.176 147.787C515.03 148.701 523.214 152.919 529.094 159.601C534.974 166.283 538.119 174.937 537.899 183.836C537.482 200.983 536.797 219.917 535.729 229.034C533.508 247.884 514.307 248.836 514.307 248.836L509.932 277.922L469.543 249.838L472.381 182.65Z" fill="#FFBF9D"/>
<path d="M514.24 248.903C505.519 247.956 497.251 244.531 490.414 239.035C490.414 239.035 494.188 255.181 513.205 255.465L514.24 248.903Z" fill="#FF9A6C"/>
<path d="M530.64 199.549C530.572 200.252 530.232 200.9 529.692 201.356C529.152 201.812 528.456 202.038 527.751 201.987C527.406 201.978 527.065 201.9 526.75 201.758C526.435 201.616 526.151 201.412 525.916 201.158C525.681 200.904 525.499 200.606 525.381 200.281C525.264 199.956 525.212 199.61 525.23 199.265C525.298 198.561 525.638 197.91 526.177 197.452C526.716 196.994 527.413 196.764 528.119 196.811C528.465 196.821 528.806 196.901 529.121 197.045C529.437 197.189 529.72 197.395 529.955 197.65C530.19 197.905 530.371 198.204 530.489 198.53C530.606 198.856 530.658 199.203 530.64 199.549Z" fill="#263238"/>
<path d="M532.975 191.167C532.607 191.468 530.721 189.748 527.815 189.498C524.91 189.247 522.639 190.433 522.356 190.049C522.072 189.665 522.623 189.264 523.625 188.696C524.972 187.951 526.52 187.648 528.049 187.828C529.556 187.981 530.976 188.606 532.107 189.615C532.925 190.349 533.158 191.017 532.975 191.167Z" fill="#263238"/>
<path d="M505.816 198.38C505.748 199.084 505.408 199.735 504.869 200.193C504.33 200.651 503.633 200.881 502.927 200.835C502.581 200.824 502.24 200.744 501.924 200.6C501.609 200.456 501.326 200.25 501.091 199.995C500.856 199.74 500.675 199.441 500.557 199.115C500.439 198.789 500.388 198.442 500.406 198.096C500.494 197.407 500.842 196.777 501.379 196.337C501.916 195.896 502.601 195.677 503.294 195.725C503.634 195.734 503.969 195.81 504.28 195.948C504.59 196.086 504.871 196.284 505.105 196.53C505.339 196.777 505.522 197.067 505.644 197.385C505.766 197.702 505.824 198.04 505.816 198.38Z" fill="#263238"/>
<path d="M504.428 189.328C504.061 189.645 502.174 187.925 499.269 187.658C496.363 187.391 494.093 188.593 493.809 188.192C493.525 187.791 494.076 187.424 495.078 186.856C496.426 186.111 497.973 185.808 499.502 185.988C501.009 186.141 502.43 186.766 503.56 187.775C504.378 188.526 504.612 189.194 504.428 189.328Z" fill="#263238"/>
<path d="M512.492 212.738C514.073 212.412 515.69 212.294 517.301 212.387C518.036 212.387 518.753 212.387 518.971 211.82C519.113 211.059 519.02 210.272 518.703 209.566L517.117 203.688C514.913 195.34 513.411 188.494 513.778 188.411C514.145 188.327 516.165 195.09 518.369 203.438C518.887 205.492 519.388 207.462 519.872 209.332C520.218 210.287 520.218 211.332 519.872 212.287C519.739 212.536 519.551 212.751 519.323 212.916C519.094 213.08 518.831 213.191 518.553 213.239C518.126 213.294 517.694 213.294 517.267 213.239C515.661 213.269 514.057 213.1 512.492 212.738Z" fill="#263238"/>
<path d="M503.742 213.841C504.21 213.841 503.892 217.013 506.347 219.535C508.801 222.056 512.191 222.056 512.174 222.507C512.157 222.957 511.356 223.041 509.937 222.924C508.09 222.757 506.362 221.941 505.061 220.62C503.805 219.359 503.092 217.657 503.074 215.878C503.091 214.542 503.525 213.808 503.742 213.841Z" fill="#263238"/>
<path d="M505.511 177.543C505.144 178.294 502.288 177.543 498.832 177.677C495.376 177.81 492.538 178.361 492.154 177.677C491.987 177.309 492.554 176.625 493.823 176.007C495.375 175.219 497.091 174.807 498.832 174.805C500.569 174.796 502.283 175.19 503.841 175.957C505.11 176.491 505.678 177.176 505.511 177.543Z" fill="#263238"/>
<path d="M532.795 181.38C532.21 181.981 530.29 181.096 527.886 180.813C525.482 180.529 523.411 180.813 523.011 180.045C522.844 179.694 523.228 179.059 524.179 178.525C525.448 177.89 526.883 177.662 528.287 177.874C529.695 178.015 531.022 178.6 532.077 179.544C532.845 180.378 533.062 181.08 532.795 181.38Z" fill="#263238"/>
<path d="M472.456 196.79C472.139 196.607 459.884 191.581 458.932 204.537C457.98 217.494 471.187 215.774 471.237 215.407C471.287 215.04 472.456 196.79 472.456 196.79Z" fill="#FFBF9D"/>
<path d="M467.628 210.2C467.628 210.2 467.394 210.35 466.993 210.501C466.444 210.676 465.848 210.64 465.324 210.401C464.005 209.799 463.003 207.545 463.103 205.208C463.159 204.095 463.455 203.007 463.971 202.019C464.114 201.61 464.357 201.243 464.678 200.951C464.999 200.66 465.387 200.453 465.808 200.349C466.073 200.296 466.347 200.34 466.583 200.471C466.818 200.603 466.999 200.814 467.094 201.067C467.244 201.434 467.094 201.685 467.21 201.718C467.327 201.752 467.494 201.518 467.427 200.984C467.38 200.656 467.22 200.355 466.977 200.132C466.811 199.985 466.618 199.873 466.409 199.801C466.2 199.729 465.978 199.7 465.758 199.715C465.216 199.776 464.7 199.977 464.261 200.299C463.822 200.622 463.474 201.053 463.253 201.551C462.624 202.63 462.263 203.844 462.201 205.091C462.101 207.712 463.253 210.25 465.09 210.935C465.43 211.061 465.795 211.109 466.156 211.074C466.518 211.039 466.867 210.923 467.177 210.734C467.594 210.517 467.678 210.234 467.628 210.2Z" fill="#FF9A6C"/>
<path d="M530.839 161.73C533.01 160.711 527.149 153.515 522.14 150.843C514.577 146.803 502.822 143.864 495.425 145.434C486.609 147.337 479.146 151.177 474.304 158.791C469.607 166.538 467.054 175.395 466.907 184.454C466.621 187.206 467.077 189.985 468.226 192.502C469.896 195.474 473.235 197.511 472.801 201.451C472.707 202.163 472.754 202.887 472.94 203.58C473.126 204.274 473.448 204.923 473.887 205.492C476.107 208.18 479.146 205.993 480.649 203.705C483.821 198.797 484.522 192.769 485.157 187.009C485.833 182.912 485.833 178.733 485.157 174.636C484.656 172.432 483.771 170.329 483.487 168.091C483.232 166.99 483.219 165.846 483.449 164.738C483.68 163.631 484.149 162.588 484.823 161.68C485.165 161.318 485.539 160.988 485.942 160.695C487.852 159.237 490.117 158.313 492.503 158.02C494.888 157.727 497.309 158.073 499.516 159.025C506.646 162.08 518.868 166.739 522.29 164.468C527.199 161.212 528.468 158.958 528.468 158.958L530.839 161.73Z" fill="#263238"/>
</g>
<defs>
<linearGradient id="paint0_linear_2096_413" x1="600.285" y1="149.677" x2="640.775" y2="149.677" gradientUnits="userSpaceOnUse">
<stop stop-color="#007FFF"/>
<stop offset="1" stop-color="#9E67E3"/>
</linearGradient>
<linearGradient id="paint1_linear_2096_413" x1="620.281" y1="183.81" x2="664.16" y2="183.81" gradientUnits="userSpaceOnUse">
<stop stop-color="#007FFF"/>
<stop offset="1" stop-color="#9E67E3"/>
</linearGradient>
<linearGradient id="paint2_linear_2096_413" x1="862.398" y1="684.306" x2="959.24" y2="684.306" gradientUnits="userSpaceOnUse">
<stop stop-color="#007FFF"/>
<stop offset="1" stop-color="#9E67E3"/>
</linearGradient>
<linearGradient id="paint3_linear_2096_413" x1="470.23" y1="288.841" x2="521.072" y2="288.841" gradientUnits="userSpaceOnUse">
<stop stop-color="#007FFF"/>
<stop offset="1" stop-color="#9E67E3"/>
</linearGradient>
<clipPath id="clip0_2096_413">
<rect width="1440" height="800" fill="white"/>
</clipPath>
</defs>
</svg>
